<svg width="500" height="458" viewBox="0 0 500 458" fill="none" xmlns="http://www.w3.org/2000/svg">
<path d="M467.91 258.92H434.32V269.79H467.91V258.92Z" fill="#EBEBEB"/>
<path d="M481.37 269.49H447.78V280.36H481.37V269.49Z" fill="#F5F5F5"/>
<path d="M448.24 89.75H414.65V100.62H448.24V89.75Z" fill="#EBEBEB"/>
<path d="M461.7 100.32H428.11V111.19H461.7V100.32Z" fill="#F5F5F5"/>
<path d="M91.18 309.59L90.68 309.54L95.81 262.85L50.66 280.93L50.47 280.47L96.39 262.07L91.18 309.59Z" fill="#E0E0E0"/>
<path d="M95.72 262.56L95.78 262.2L102.83 217.02L103.32 217.09L96.32 261.92L140.6 252.89L140.7 253.38L95.72 262.56Z" fill="#E0E0E0"/>
<path d="M126.48 295.43L95.86 262.43C82.69 254.23 57.58 238.67 56.64 238.35L56.76 237.86C57.61 238.04 92.21 259.57 96.15 262.02H96.21L126.84 295.02L126.48 295.43Z" fill="#E0E0E0"/>
<path d="M91.1399 309.59L90.6499 309.54L95.7699 262.85L50.6199 280.93L50.4399 280.47L96.3599 262.07L91.1399 309.59Z" fill="#E0E0E0"/>
<path d="M95.6899 262.56L95.7399 262.2L102.79 217.02L103.28 217.09L96.2899 261.92L140.56 252.89L140.66 253.38L95.6899 262.56Z" fill="#E0E0E0"/>
<path d="M126.44 295.43L95.83 262.43C82.66 254.27 57.55 238.68 56.6 238.36L56.72 237.87C57.57 238.05 92.18 259.58 96.12 262.03L126.76 295.03L126.44 295.43Z" fill="#E0E0E0"/>
<path d="M66.78 300.26L66.39 299.95L95.8 263.31L48 254.32L48.09 253.82L96.71 262.97L66.78 300.26Z" fill="#E0E0E0"/>
<path d="M138.75 279.44L95.88 263.02L96.12 262.75L126.33 228.43L126.71 228.76L96.73 262.81L138.93 278.97L138.75 279.44Z" fill="#E0E0E0"/>
<path d="M104.17 307.27L96.06 263C89.36 249 76.54 222.4 75.92 221.62L76.27 221.27C76.9 221.88 94.52 258.62 96.53 262.81V262.87L104.64 307.18L104.17 307.27Z" fill="#E0E0E0"/>
<path d="M80.15 222.63C88.0255 219.474 96.66 218.724 104.962 220.475C113.263 222.226 120.859 226.4 126.789 232.468C132.719 238.536 136.717 246.226 138.276 254.565C139.836 262.905 138.888 271.52 135.551 279.321C132.215 287.122 126.641 293.758 119.533 298.391C112.425 303.024 104.103 305.445 95.6197 305.349C87.1359 305.253 78.8713 302.643 71.8707 297.849C64.8701 293.056 59.448 286.295 56.29 278.42C52.0854 267.855 52.2363 256.056 56.7097 245.602C61.1831 235.149 69.6147 226.893 80.16 222.64M77.87 216.93C68.8606 220.533 61.1218 226.726 55.6323 234.727C50.1428 242.728 47.149 252.177 47.0296 261.879C46.9102 271.581 49.6704 281.101 54.9614 289.235C60.2523 297.368 67.8363 303.75 76.7542 307.574C85.6722 311.397 95.5237 312.49 105.063 310.715C114.602 308.939 123.401 304.375 130.346 297.599C137.291 290.823 142.071 282.14 144.081 272.647C146.092 263.155 145.242 253.28 141.64 244.27C139.249 238.285 135.703 232.83 131.203 228.217C126.703 223.603 121.339 219.921 115.416 217.382C109.493 214.842 103.128 213.494 96.684 213.414C90.24 213.335 83.8435 214.526 77.86 216.92L77.87 216.93Z" fill="#E0E0E0"/>
<path d="M102.554 267.021C105.07 263.456 104.219 258.527 100.654 256.011C97.0896 253.496 92.1604 254.346 89.6448 257.911C87.1292 261.476 87.9797 266.405 91.5445 268.921C95.1093 271.436 100.038 270.586 102.554 267.021Z" fill="#E0E0E0"/>
<path d="M428.79 288.27C425.81 288.268 422.838 288.57 419.92 289.17L413.92 265.75L411.43 248.75C411.393 248.489 411.305 248.237 411.17 248.01L423.73 243.85C425.066 243.407 426.519 243.476 427.807 244.041C429.096 244.607 430.129 245.631 430.707 246.914C431.285 248.197 431.368 249.649 430.938 250.989C430.508 252.329 429.597 253.462 428.38 254.17L427.16 254.87C426.714 255.13 426.366 255.53 426.17 256.007C425.974 256.484 425.941 257.013 426.075 257.511C426.209 258.01 426.504 258.45 426.913 258.764C427.322 259.078 427.824 259.249 428.34 259.25C428.75 259.249 429.153 259.142 429.51 258.94L430.72 258.24C432.943 256.95 434.609 254.881 435.396 252.434C436.183 249.987 436.035 247.335 434.98 244.991C433.925 242.647 432.039 240.777 429.686 239.742C427.333 238.708 424.68 238.582 422.24 239.39L398.71 247.18C398.417 247.277 398.145 247.431 397.911 247.633C397.677 247.835 397.485 248.082 397.346 248.358C397.208 248.634 397.124 248.935 397.102 249.243C397.079 249.552 397.118 249.861 397.215 250.155C397.312 250.449 397.466 250.72 397.668 250.954C397.87 251.188 398.117 251.38 398.393 251.519C398.669 251.657 398.97 251.74 399.278 251.763C399.587 251.786 399.897 251.747 400.19 251.65L407.36 249.27V249.35L409.5 264.15L326.44 271.67L321.44 259.88C323.833 259.382 326.199 258.765 328.53 258.03C333.13 256.51 335.67 257.86 334.1 254.28C332.82 251.36 323.65 252.55 317.47 252.61C315.892 252.648 314.316 252.463 312.79 252.06C306.35 250.25 299.49 252.8 305.19 260.06C306.84 261.78 312.14 261.49 317.4 260.63C317.418 260.819 317.465 261.005 317.54 261.18L323.22 274.64L315.06 291.86C307.237 288.449 298.585 287.406 290.175 288.859C281.766 290.313 273.966 294.199 267.741 300.038C261.517 305.877 257.14 313.412 255.152 321.712C253.164 330.012 253.652 338.712 256.556 346.737C259.46 354.763 264.652 361.761 271.491 366.867C278.33 371.972 286.515 374.962 295.035 375.465C303.555 375.969 312.035 373.965 319.428 369.7C326.82 365.435 332.801 359.097 336.63 351.47L352 356.44L348.93 367.54H346.57C346.207 367.54 345.858 367.684 345.601 367.941C345.344 368.198 345.2 368.547 345.2 368.91C345.2 369.273 345.344 369.622 345.601 369.879C345.858 370.136 346.207 370.28 346.57 370.28H358.67C359.033 370.28 359.382 370.136 359.639 369.879C359.896 369.622 360.04 369.273 360.04 368.91C360.04 368.547 359.896 368.198 359.639 367.941C359.382 367.684 359.033 367.54 358.67 367.54H351.76L354.65 357.14H354.84C355.224 357.208 355.611 357.251 356 357.27H356.31C358.949 357.189 361.453 356.085 363.291 354.19C365.13 352.296 366.159 349.76 366.16 347.12C366.16 346.92 366.16 346.73 366.16 346.54C366.16 346.35 366.16 346.33 366.16 346.22C366.16 346.11 366.11 345.82 366.08 345.62C366.05 345.42 366.08 345.42 366.03 345.32C365.997 345.115 365.954 344.911 365.9 344.71L365.84 344.45C365.78 344.24 365.72 344.04 365.65 343.83L365.59 343.66C365.243 342.702 364.755 341.802 364.14 340.99L364.02 340.84C363.993 340.798 363.963 340.758 363.93 340.72L413.37 280.2L415.95 290.2C405.416 293.44 396.496 300.542 390.978 310.083C385.461 319.623 383.754 330.897 386.2 341.644C388.646 352.39 395.063 361.814 404.166 368.028C413.269 374.241 424.385 376.783 435.283 375.145C446.182 373.507 456.059 367.809 462.933 359.194C469.807 350.58 473.171 339.685 472.349 328.694C471.528 317.704 466.582 307.43 458.503 299.933C450.425 292.436 439.811 288.27 428.79 288.27ZM316.4 300.56L304.51 320.56L314.51 299.48C315.14 299.83 315.78 300.18 316.4 300.56ZM297.62 295.37C302.571 295.362 307.471 296.366 312.02 298.32L299.21 325.32C298.691 325.185 298.157 325.114 297.62 325.11C296.604 325.099 295.599 325.318 294.68 325.75C288.6 317.48 280.38 306.33 276.9 301.8C282.991 297.598 290.22 295.355 297.62 295.37ZM276.13 302.37C279.3 306.53 287.04 317 293.84 326.23C292.971 326.804 292.247 327.573 291.726 328.476C291.205 329.378 290.902 330.39 290.84 331.43H261.09C261.168 325.754 262.568 320.174 265.179 315.133C267.789 310.092 271.539 305.729 276.13 302.39V302.37ZM261.13 332.37H290.86C290.946 333.561 291.346 334.709 292.021 335.695C292.696 336.68 293.62 337.469 294.7 337.98L280.7 364.26C274.863 361.208 269.959 356.635 266.507 351.025C263.055 345.415 261.184 338.976 261.09 332.39L261.13 332.37ZM297.68 368.45C292.072 368.461 286.538 367.174 281.51 364.69L295.59 338.31C295.675 338.344 295.762 338.374 295.85 338.4L301.21 340.12L311.12 365.89C306.831 367.598 302.256 368.474 297.64 368.47L297.68 368.45ZM312 365.56L302.37 340.51L329.83 349.32C325.886 356.587 319.603 362.31 312 365.56ZM330.78 347.42L301.4 337.99L301.26 337.62C302.031 337.133 302.694 336.495 303.21 335.744C303.726 334.992 304.083 334.144 304.26 333.25L333.6 338.58C333.027 341.638 332.062 344.609 330.73 347.42H330.78ZM333.78 337.65L304.39 332.32C304.39 332.19 304.39 332.06 304.39 331.92C304.392 330.62 304.013 329.347 303.3 328.26L334.12 334.4C334 335.5 333.9 336.59 333.73 337.65H333.78ZM334.22 332.35L302.44 326L317.24 301.06C322.448 304.351 326.739 308.906 329.711 314.302C332.684 319.698 334.242 325.759 334.24 331.92C334.18 332.06 334.17 332.21 334.17 332.35H334.22ZM317.54 293.07L324.65 278.07L348.79 335.27L341.23 333.76C341.23 333.15 341.23 332.54 341.23 331.93C341.235 323.901 339.027 316.026 334.847 309.17C330.668 302.314 324.68 296.743 317.54 293.07ZM347.66 352.85L337.54 349.6C339.48 345.228 340.683 340.565 341.1 335.8L349.74 337.52L350.24 338.71C349.141 339.468 348.202 340.435 347.477 341.556C346.752 342.678 346.256 343.931 346.016 345.245C345.776 346.558 345.798 347.906 346.08 349.211C346.362 350.516 346.899 351.753 347.66 352.85ZM352.93 353.06C351.947 352.558 351.103 351.821 350.472 350.915C349.842 350.008 349.444 348.961 349.315 347.865C349.185 346.768 349.328 345.657 349.73 344.629C350.132 343.601 350.781 342.688 351.62 341.97L354.12 347.89C354.167 347.99 354.221 348.087 354.28 348.18L352.93 353.06ZM356.01 353.81H355.56L356.91 348.95C357.186 348.82 357.429 348.628 357.62 348.39L361.67 343.39C362.382 344.478 362.761 345.75 362.76 347.05C362.761 347.938 362.587 348.818 362.248 349.638C361.909 350.459 361.411 351.205 360.783 351.833C360.155 352.461 359.409 352.959 358.589 353.298C357.768 353.637 356.888 353.811 356 353.81H356.01ZM355.41 340.36H356.01H356.45L356.04 341.86L355.41 340.36ZM360.72 338.06L360.26 337.84L360.13 337.77L360.02 337.72L363.11 326.6H365.47C365.833 326.6 366.182 326.456 366.439 326.199C366.696 325.942 366.84 325.593 366.84 325.23C366.84 324.867 366.696 324.518 366.439 324.261C366.182 324.004 365.833 323.86 365.47 323.86H353.36C352.997 323.86 352.648 324.004 352.391 324.261C352.134 324.518 351.99 324.867 351.99 325.23C351.99 325.593 352.134 325.942 352.391 326.199C352.648 326.456 352.997 326.6 353.36 326.6H360.27L357.39 336.99L353.67 336.25L328.1 275.67L410.29 268.27L412.08 275.27L360.72 338.06ZM428.78 295.37C435.173 295.355 441.457 297.024 447 300.21L431.72 325.87C430.926 325.482 430.062 325.257 429.18 325.21L421.7 296.07C424.032 295.608 426.403 295.374 428.78 295.37ZM417.71 297.1L425.12 325.94C419.19 317.88 411.17 307 407.52 302.22C410.625 299.986 414.064 298.258 417.71 297.1ZM406.77 302.77C410.16 307.24 417.85 317.64 424.52 326.71C423.808 327.289 423.223 328.009 422.801 328.825C422.38 329.64 422.131 330.534 422.07 331.45H392.25C392.322 325.879 393.668 320.398 396.185 315.426C398.701 310.455 402.322 306.126 406.77 302.77ZM392.25 332.39H422.07C422.141 333.447 422.462 334.472 423.006 335.382C423.55 336.291 424.302 337.058 425.2 337.62L411.2 363.94C405.531 360.83 400.79 356.27 397.46 350.727C394.131 345.183 392.333 338.856 392.25 332.39ZM428.79 368.47C422.943 368.477 417.18 367.074 411.99 364.38L425.99 338.07C426.856 338.456 427.792 338.657 428.74 338.66C429.435 338.656 430.126 338.548 430.79 338.34L441.49 366.18C437.427 367.696 433.126 368.471 428.79 368.47ZM442.41 365.84L431.7 337.99C432.615 337.547 433.419 336.903 434.051 336.107C434.683 335.311 435.127 334.382 435.35 333.39L464.7 338.72C463.553 344.746 460.911 350.386 457.016 355.125C453.122 359.864 448.099 363.548 442.41 365.84ZM435.49 332.46C435.49 332.28 435.49 332.11 435.49 331.92C435.489 330.813 435.215 329.724 434.691 328.749C434.168 327.773 433.412 326.943 432.49 326.33L447.72 300.68C453.948 304.456 458.903 310.008 461.951 316.623C464.998 323.238 465.997 330.613 464.82 337.8L435.49 332.46Z" fill="#F0F0F0"/>
<path d="M427.94 71.02H280.73V233.92H427.94V71.02Z" fill="#E6E6E6"/>
<path d="M421.85 77.47H287.21V227.8H421.85V77.47Z" fill="#F5F5F5"/>
<path d="M325.26 77.47L287.21 219.98V142.83L304.62 77.47H325.26Z" fill="white"/>
<path d="M342.27 77.47L302.13 227.8H294.57L334.7 77.47H342.27Z" fill="white"/>
<path d="M421.85 118.46V195.62L413.32 227.8H392.68L421.85 118.46Z" fill="white"/>
<path d="M356.95 71.02H351.72V233.92H356.95V71.02Z" fill="#E6E6E6"/>
<path d="M425.12 104.07H283.29V109.3H425.12V104.07Z" fill="#E6E6E6"/>
<path d="M63.83 107H30.24V117.87H63.83V107Z" fill="#EBEBEB"/>
<path d="M77.29 117.57H43.7V128.44H77.29V117.57Z" fill="#F5F5F5"/>
<path d="M178.63 205.43H145.04V216.3H178.63V205.43Z" fill="#EBEBEB"/>
<path d="M192.08 216H158.49V226.87H192.08V216Z" fill="#F5F5F5"/>
<path d="M158.21 46.0701H124.62V56.9401H158.21V46.0701Z" fill="#F5F5F5"/>
<path d="M266.8 56.9399H233.21V67.8099H266.8V56.9399Z" fill="#F5F5F5"/>
<path d="M356.19 28H322.6V38.87H356.19V28Z" fill="#EBEBEB"/>
<path d="M369.64 38.5601H336.05V49.4301H369.64V38.5601Z" fill="#F5F5F5"/>
<path d="M443.92 313.47H263.17C261.617 313.467 260.128 312.849 259.029 311.751C257.931 310.652 257.313 309.163 257.31 307.61V44.33C257.313 42.7766 257.931 41.2876 259.029 40.1892C260.128 39.0909 261.617 38.4726 263.17 38.47H443.92C445.473 38.4726 446.962 39.0909 448.061 40.1892C449.159 41.2876 449.777 42.7766 449.78 44.33V307.61C449.777 309.163 449.159 310.652 448.061 311.751C446.962 312.849 445.473 313.467 443.92 313.47ZM263.17 38.72C261.683 38.7226 260.258 39.3145 259.206 40.366C258.155 41.4175 257.563 42.8429 257.56 44.33V307.61C257.563 309.097 258.155 310.522 259.206 311.574C260.258 312.625 261.683 313.217 263.17 313.22H443.92C445.408 313.22 446.835 312.629 447.887 311.577C448.939 310.525 449.53 309.098 449.53 307.61V44.33C449.53 42.8421 448.939 41.4152 447.887 40.3631C446.835 39.311 445.408 38.72 443.92 38.72H263.17Z" fill="#E0E0E0"/>
<path d="M235.49 313.47H54.75C53.1949 313.47 51.7034 312.853 50.6028 311.754C49.5023 310.656 48.8827 309.165 48.88 307.61V44.33C48.8827 42.7749 49.5023 41.2844 50.6028 40.1857C51.7034 39.087 53.1949 38.47 54.75 38.47H235.49C237.044 38.47 238.535 39.0874 239.634 40.1863C240.733 41.2853 241.35 42.7758 241.35 44.33V307.61C241.35 309.164 240.733 310.655 239.634 311.754C238.535 312.853 237.044 313.47 235.49 313.47ZM54.75 38.72C53.2612 38.72 51.8333 39.3107 50.7796 40.3625C49.7259 41.4143 49.1327 42.8412 49.13 44.33V307.61C49.1247 308.351 49.2662 309.086 49.5463 309.773C49.8263 310.459 50.2395 311.084 50.7619 311.61C51.2842 312.136 51.9056 312.553 52.59 312.838C53.2745 313.123 54.0086 313.27 54.75 313.27H235.49C236.227 313.27 236.956 313.125 237.637 312.843C238.317 312.561 238.936 312.148 239.457 311.627C239.978 311.106 240.391 310.487 240.673 309.807C240.955 309.126 241.1 308.397 241.1 307.66V44.33C241.1 43.5933 240.955 42.8638 240.673 42.1831C240.391 41.5025 239.978 40.884 239.457 40.3631C238.936 39.8422 238.317 39.4289 237.637 39.147C236.956 38.8651 236.227 38.72 235.49 38.72H54.75Z" fill="#E0E0E0"/>
<path d="M500 374.54H0V374.79H500V374.54Z" fill="#E0E0E0"/>
<path d="M68.52 388.8H52.46V389.05H68.52V388.8Z" fill="#E0E0E0"/>
<path d="M224.67 386.09H171.14V386.34H224.67V386.09Z" fill="#E0E0E0"/>
<path d="M105.77 398.09H69.52V398.34H105.77V398.09Z" fill="#E0E0E0"/>
<path d="M422.33 385.96H379.14V386.21H422.33V385.96Z" fill="#E0E0E0"/>
<path d="M437.57 385.96H431.24V386.21H437.57V385.96Z" fill="#E0E0E0"/>
<path d="M370.89 392.19H317V392.44H370.89V392.19Z" fill="#E0E0E0"/>
<path d="M467 424.8C467 428.19 373.49 430.94 258.13 430.94C142.77 430.94 49.25 428.19 49.25 424.8C49.25 421.41 142.77 418.67 258.13 418.67C373.49 418.67 467 421.42 467 424.8Z" fill="#F5F5F5"/>
<path d="M224.95 70.4202H64.5801V186.78H224.95V70.4202Z" fill="#006A8E"/>
<path opacity="0.6" d="M219.04 76.9102H70.77V180.29H219.04V76.9102Z" fill="white"/>
<path opacity="0.2" d="M95.77 122.49V103.05C96.6784 102.466 97.3732 101.603 97.7503 100.591C98.1275 99.5786 98.1667 98.4716 97.8622 97.4353C97.5577 96.399 96.9257 95.4891 96.061 94.8419C95.1962 94.1947 94.1451 93.845 93.065 93.845C91.9849 93.845 90.9338 94.1947 90.0691 94.8419C89.2043 95.4891 88.5724 96.399 88.2679 97.4353C87.9633 98.4716 88.0026 99.5786 88.3797 100.591C88.7569 101.603 89.4516 102.466 90.36 103.05V122.49C89.2393 123.006 88.2878 123.829 87.6162 124.863C86.9445 125.898 86.5802 127.102 86.5655 128.336C86.5509 129.569 86.8865 130.782 87.5334 131.832C88.1802 132.883 89.1119 133.728 90.22 134.27V128.99C91.1173 128.484 92.0703 128.085 93.06 127.8L96.06 128.93V134.27C97.1586 133.717 98.0781 132.865 98.7121 131.811C99.3461 130.757 99.6688 129.546 99.6426 128.316C99.6164 127.087 99.2426 125.89 98.5643 124.864C97.886 123.838 96.9311 123.026 95.81 122.52L95.77 122.49ZM93.06 96.6901C93.5876 96.6742 94.1044 96.8419 94.5222 97.1646C94.9399 97.4872 95.2328 97.9449 95.3508 98.4594C95.4688 98.9738 95.4046 99.5133 95.1692 99.9858C94.9338 100.458 94.5418 100.834 94.06 101.05H92.11C91.6282 100.834 91.2362 100.458 91.0008 99.9858C90.7654 99.5133 90.7012 98.9738 90.8192 98.4594C90.9372 97.9449 91.2301 97.4872 91.6479 97.1646C92.0656 96.8419 92.5824 96.6742 93.11 96.6901H93.06Z" fill="black"/>
<path opacity="0.2" d="M141.83 114.66V102.46C142.407 102.093 142.85 101.549 143.092 100.909C143.333 100.268 143.36 99.5673 143.169 98.9104C142.978 98.2535 142.579 97.6764 142.032 97.2657C141.485 96.8551 140.819 96.6331 140.135 96.6331C139.451 96.6331 138.785 96.8551 138.238 97.2657C137.691 97.6764 137.292 98.2535 137.101 98.9104C136.91 99.5673 136.937 100.268 137.178 100.909C137.42 101.549 137.863 102.093 138.44 102.46V114.66C137.731 114.981 137.129 115.497 136.703 116.148C136.277 116.799 136.046 117.558 136.037 118.336C136.027 119.114 136.24 119.879 136.65 120.54C137.059 121.201 137.649 121.732 138.35 122.07V118.75C138.915 118.433 139.516 118.184 140.14 118.01L141.99 118.72V122.03C142.68 121.684 143.258 121.149 143.656 120.488C144.054 119.827 144.257 119.066 144.24 118.294C144.223 117.523 143.988 116.772 143.561 116.128C143.135 115.485 142.534 114.976 141.83 114.66ZM140.14 98.47C140.329 98.47 140.515 98.5073 140.69 98.5798C140.864 98.6523 141.022 98.7585 141.155 98.8924C141.288 99.0262 141.393 99.185 141.464 99.3597C141.535 99.5343 141.571 99.7214 141.57 99.91C141.57 100.182 141.491 100.448 141.344 100.677C141.197 100.905 140.987 101.087 140.74 101.2H139.54C139.29 101.09 139.078 100.909 138.928 100.68C138.779 100.451 138.7 100.183 138.7 99.91C138.699 99.7205 138.735 99.5327 138.807 99.3574C138.879 99.1821 138.985 99.0228 139.119 98.8888C139.253 98.7548 139.412 98.6488 139.587 98.5769C139.763 98.505 139.95 98.4687 140.14 98.47Z" fill="black"/>
<path opacity="0.2" d="M120.3 119.42V103.08C121.07 102.589 121.659 101.861 121.98 101.007C122.301 100.152 122.337 99.2165 122.081 98.3401C121.825 97.4638 121.292 96.694 120.562 96.1463C119.831 95.5986 118.943 95.3025 118.03 95.3025C117.117 95.3025 116.229 95.5986 115.498 96.1463C114.768 96.694 114.235 97.4638 113.979 98.3401C113.723 99.2165 113.759 100.152 114.08 101.007C114.401 101.861 114.99 102.589 115.76 103.08V119.42C114.809 119.848 114.001 120.538 113.43 121.41C112.859 122.282 112.548 123.299 112.536 124.342C112.523 125.384 112.809 126.408 113.359 127.294C113.909 128.179 114.7 128.889 115.64 129.34V124.9C116.393 124.471 117.196 124.135 118.03 123.9L120.52 124.84V129.27C121.442 128.804 122.213 128.087 122.744 127.202C123.276 126.316 123.545 125.298 123.522 124.266C123.499 123.233 123.185 122.228 122.614 121.367C122.044 120.506 121.242 119.824 120.3 119.4V119.42ZM118 97.74C118.437 97.7403 118.86 97.8897 119.201 98.1633C119.542 98.437 119.779 98.8185 119.873 99.2451C119.967 99.6716 119.913 100.118 119.72 100.509C119.527 100.901 119.206 101.215 118.81 101.4H117.2C116.805 101.216 116.484 100.902 116.291 100.512C116.097 100.121 116.043 99.6759 116.136 99.2499C116.229 98.824 116.464 98.4424 116.803 98.168C117.142 97.8935 117.564 97.7426 118 97.74Z" fill="black"/>
<path opacity="0.2" d="M95.41 164.73V153.94C96.3871 153.495 97.2173 152.781 97.8039 151.882C98.3905 150.982 98.7093 149.935 98.7229 148.861C98.7365 147.788 98.4445 146.732 97.8809 145.818C97.3173 144.905 96.5054 144.17 95.54 143.7V148.27C94.7567 148.702 93.924 149.038 93.06 149.27L90.5 148.27V143.68C89.5493 144.163 88.7543 144.904 88.2064 145.818C87.6585 146.733 87.38 147.783 87.403 148.849C87.426 149.915 87.7495 150.953 88.3363 151.843C88.9232 152.733 89.7494 153.439 90.72 153.88V164.67C89.7402 165.114 88.9072 165.828 88.3186 166.728C87.73 167.629 87.4101 168.678 87.3965 169.754C87.3828 170.829 87.676 171.887 88.2416 172.802C88.8071 173.717 89.6218 174.451 90.59 174.92V170.34C91.3706 169.91 92.1998 169.574 93.06 169.34L95.63 170.34V174.93C96.5806 174.448 97.3757 173.706 97.9236 172.792C98.4715 171.877 98.75 170.827 98.727 169.761C98.704 168.695 98.3805 167.657 97.7936 166.767C97.2068 165.877 96.3806 165.171 95.41 164.73Z" fill="black"/>
<path opacity="0.2" d="M120.2 164.73V153.94C121.18 153.497 122.013 152.783 122.601 151.883C123.19 150.983 123.509 149.934 123.521 148.858C123.534 147.783 123.239 146.726 122.672 145.813C122.105 144.899 121.289 144.166 120.32 143.7V148.27C119.54 148.702 118.711 149.038 117.85 149.27L115.29 148.27V143.68C114.339 144.163 113.544 144.904 112.996 145.818C112.449 146.733 112.17 147.783 112.193 148.849C112.216 149.915 112.54 150.953 113.126 151.843C113.713 152.733 114.539 153.439 115.51 153.88V164.67C114.53 165.114 113.697 165.828 113.109 166.728C112.52 167.629 112.2 168.678 112.186 169.754C112.173 170.829 112.466 171.887 113.032 172.802C113.597 173.717 114.412 174.451 115.38 174.92V170.34C116.161 169.91 116.99 169.574 117.85 169.34L120.42 170.34V174.93C121.371 174.448 122.166 173.706 122.714 172.792C123.262 171.877 123.54 170.827 123.517 169.761C123.494 168.695 123.171 167.657 122.584 166.767C121.997 165.877 121.171 165.171 120.2 164.73Z" fill="black"/>
<path opacity="0.2" d="M145 164.73V153.94C145.98 153.497 146.813 152.783 147.401 151.883C147.99 150.983 148.309 149.934 148.321 148.858C148.334 147.783 148.039 146.726 147.472 145.813C146.905 144.899 146.089 144.166 145.12 143.7V148.27C144.339 148.7 143.51 149.036 142.65 149.27L140.09 148.27V143.68C139.136 144.16 138.338 144.9 137.787 145.815C137.237 146.73 136.957 147.782 136.98 148.85C137.003 149.917 137.328 150.956 137.917 151.846C138.507 152.737 139.336 153.442 140.31 153.88V164.67C139.33 165.114 138.497 165.828 137.909 166.728C137.32 167.629 137 168.678 136.986 169.754C136.973 170.829 137.266 171.887 137.832 172.802C138.397 173.717 139.212 174.451 140.18 174.92V170.34C140.961 169.91 141.79 169.574 142.65 169.34L145.22 170.34V174.93C146.171 174.448 146.966 173.706 147.514 172.792C148.062 171.877 148.34 170.827 148.317 169.761C148.294 168.695 147.97 167.657 147.384 166.767C146.797 165.877 145.971 165.171 145 164.73Z" fill="black"/>
<path d="M174.44 137.17V114.74H169.66V137.17C169.66 139.96 168.9 147.95 168.9 152.17C168.9 164.1 168.9 164.1 172.05 164.1C175.2 164.1 175.2 164.1 175.2 152.17C175.2 147.95 174.44 139.98 174.44 137.17Z" fill="white"/>
<path d="M168.9 152.21C168.9 147.95 169.66 139.96 169.66 137.21H174.44C174.44 140.02 175.2 147.99 175.2 152.21C175.2 164.14 175.2 164.14 172.05 164.14C168.9 164.14 168.9 164.14 168.9 152.21Z" fill="#006A8E"/>
<path d="M183.74 116.82H160.31C159.43 111.3 159.16 106.22 160.31 102.19H183.74C184.477 107.039 184.477 111.971 183.74 116.82Z" fill="#263238"/>
<path d="M194.23 149.37H195.53V146.74C195.53 146.65 195.51 146.561 195.47 146.48L195.08 145.63C194.992 145.439 194.948 145.23 194.95 145.02V123.72H193.57V144.99C193.573 145.22 193.518 145.447 193.41 145.65L192.99 146.48C192.949 146.564 192.929 146.657 192.93 146.75V149.37H194.23Z" fill="white"/>
<path d="M196.74 122.21C197.075 119.367 197.199 116.502 197.11 113.64C197.11 101.64 197.11 101.64 194.23 101.64C191.35 101.64 191.34 101.64 191.34 113.64C191.249 116.502 191.376 119.367 191.72 122.21H196.74Z" fill="#006A8E"/>
<path d="M196.86 122.21H191.6C191.114 122.21 190.72 122.604 190.72 123.09V123.79C190.72 124.276 191.114 124.67 191.6 124.67H196.86C197.346 124.67 197.74 124.276 197.74 123.79V123.09C197.74 122.604 197.346 122.21 196.86 122.21Z" fill="#006A8E"/>
<path d="M205 149.37H206.3V146.74C206.299 146.651 206.282 146.563 206.25 146.48L205.86 145.63C205.769 145.439 205.721 145.231 205.72 145.02V123.72H204.34V144.99C204.341 145.219 204.29 145.444 204.19 145.65L203.77 146.48C203.722 146.562 203.697 146.655 203.7 146.75V149.37H205Z" fill="white"/>
<path d="M207.54 122.21C207.875 119.367 207.999 116.502 207.91 113.64C207.91 101.64 207.91 101.64 205.03 101.64C202.15 101.64 202.15 101.64 202.15 113.64C202.061 116.502 202.185 119.367 202.52 122.21H207.54Z" fill="#006A8E"/>
<path d="M207.66 122.21H202.4C201.914 122.21 201.52 122.604 201.52 123.09V123.79C201.52 124.276 201.914 124.67 202.4 124.67H207.66C208.146 124.67 208.54 124.276 208.54 123.79V123.09C208.54 122.604 208.146 122.21 207.66 122.21Z" fill="#006A8E"/>
<path d="M95.77 119.44V100C96.6784 99.4157 97.3731 98.5529 97.7503 97.5407C98.1274 96.5286 98.1667 95.4215 97.8621 94.3852C97.5576 93.3489 96.9257 92.4391 96.0609 91.7919C95.1962 91.1447 94.1451 90.7949 93.065 90.7949C91.9848 90.7949 90.9338 91.1447 90.069 91.7919C89.2042 92.4391 88.5723 93.3489 88.2678 94.3852C87.9633 95.4215 88.0025 96.5286 88.3797 97.5407C88.7568 98.5529 89.4516 99.4157 90.36 100V119.44C89.2255 119.95 88.2605 120.773 87.5787 121.813C86.897 122.853 86.5269 124.067 86.5122 125.31C86.4975 126.554 86.8387 127.776 87.4957 128.832C88.1526 129.888 89.0979 130.734 90.22 131.27V125.97C91.1172 125.464 92.0703 125.065 93.06 124.78L96.06 125.91V131.19C97.1585 130.637 98.078 129.785 98.7121 128.731C99.3461 127.677 99.6687 126.466 99.6425 125.236C99.6164 124.007 99.2425 122.81 98.5642 121.784C97.886 120.758 96.931 119.946 95.81 119.44H95.77ZM93.06 93.64C93.5876 93.6242 94.1043 93.7919 94.5221 94.1145C94.9399 94.4372 95.2327 94.8948 95.3507 95.4093C95.4687 95.9238 95.4046 96.4633 95.1692 96.9358C94.9338 97.4082 94.5417 97.7844 94.06 98H92.11C91.6282 97.7844 91.2361 97.4082 91.0007 96.9358C90.7653 96.4633 90.7012 95.9238 90.8192 95.4093C90.9372 94.8948 91.23 94.4372 91.6478 94.1145C92.0656 93.7919 92.5823 93.6242 93.11 93.64H93.06Z" fill="white"/>
<path d="M141.83 111.61V99.41C142.407 99.043 142.85 98.4986 143.092 97.8585C143.333 97.2184 143.36 96.5173 143.169 95.8604C142.978 95.2035 142.579 94.6264 142.032 94.2157C141.485 93.805 140.819 93.583 140.135 93.583C139.451 93.583 138.785 93.805 138.238 94.2157C137.691 94.6264 137.292 95.2035 137.101 95.8604C136.91 96.5173 136.937 97.2184 137.178 97.8585C137.42 98.4986 137.863 99.043 138.44 99.41V111.61C137.731 111.931 137.129 112.447 136.703 113.098C136.277 113.749 136.046 114.508 136.037 115.286C136.027 116.064 136.24 116.829 136.65 117.49C137.059 118.151 137.649 118.682 138.35 119.02V115.71C138.914 115.389 139.515 115.137 140.14 114.96L141.99 115.67V118.98C142.68 118.634 143.258 118.099 143.656 117.438C144.054 116.777 144.257 116.016 144.24 115.244C144.223 114.473 143.988 113.722 143.561 113.078C143.135 112.435 142.534 111.926 141.83 111.61ZM140.14 95.42C140.329 95.4199 140.515 95.4573 140.69 95.5298C140.864 95.6022 141.022 95.7085 141.155 95.8423C141.288 95.9762 141.393 96.135 141.464 96.3096C141.535 96.4843 141.571 96.6713 141.57 96.8599C141.57 97.1319 141.491 97.398 141.344 97.6267C141.197 97.8553 140.987 98.037 140.74 98.1499H139.54C139.29 98.0395 139.078 97.8587 138.928 97.6297C138.779 97.4007 138.7 97.1332 138.7 96.8599C138.699 96.6705 138.735 96.4826 138.807 96.3073C138.879 96.132 138.985 95.9727 139.119 95.8388C139.253 95.7048 139.412 95.5988 139.587 95.5269C139.763 95.455 139.95 95.4186 140.14 95.42Z" fill="white"/>
<path d="M120.3 116.37V100.03C121.07 99.5391 121.659 98.8116 121.98 97.957C122.301 97.1024 122.337 96.1667 122.081 95.2903C121.825 94.4139 121.292 93.6442 120.562 93.0965C119.831 92.5488 118.943 92.2527 118.03 92.2527C117.117 92.2527 116.229 92.5488 115.498 93.0965C114.768 93.6442 114.235 94.4139 113.979 95.2903C113.723 96.1667 113.759 97.1024 114.08 97.957C114.401 98.8116 114.99 99.5391 115.76 100.03V116.37C114.809 116.798 114.001 117.489 113.43 118.361C112.859 119.233 112.548 120.25 112.536 121.292C112.523 122.334 112.809 123.358 113.359 124.244C113.909 125.129 114.7 125.839 115.64 126.29V121.85C116.393 121.421 117.196 121.085 118.03 120.85L120.52 121.79V126.27C121.442 125.805 122.213 125.087 122.744 124.202C123.276 123.316 123.545 122.298 123.522 121.266C123.499 120.233 123.185 119.228 122.614 118.367C122.044 117.506 121.242 116.824 120.3 116.4V116.37ZM118 94.6901C118.437 94.6905 118.86 94.8399 119.201 95.1135C119.542 95.3871 119.779 95.7687 119.873 96.1953C119.967 96.6218 119.913 97.0678 119.72 97.4595C119.527 97.8513 119.206 98.1655 118.81 98.3501H117.2C116.805 98.1658 116.484 97.8525 116.291 97.4618C116.097 97.071 116.043 96.6261 116.136 96.2001C116.229 95.7742 116.464 95.3926 116.803 95.1182C117.142 94.8437 117.564 94.6928 118 94.6901Z" fill="white"/>
<path d="M95.41 161.69V150.89C96.387 150.445 97.2173 149.731 97.8039 148.832C98.3905 147.932 98.7092 146.885 98.7229 145.811C98.7365 144.738 98.4445 143.682 97.8809 142.768C97.3173 141.855 96.5054 141.12 95.54 140.65V145.27C94.7566 145.702 93.9239 146.038 93.0599 146.27L90.5 145.27V140.69C89.5488 141.171 88.753 141.911 88.2046 142.825C87.6561 143.738 87.3772 144.789 87.4002 145.854C87.4232 146.92 87.7472 147.957 88.3346 148.846C88.922 149.736 89.7489 150.441 90.72 150.88V161.68C89.7429 162.125 88.9126 162.839 88.326 163.738C87.7394 164.638 87.4207 165.685 87.4071 166.759C87.3934 167.832 87.6854 168.888 88.249 169.802C88.8126 170.715 89.6245 171.45 90.5899 171.92V167.34C91.3706 166.91 92.1998 166.574 93.0599 166.34L95.6299 167.34V171.93C96.5811 171.449 97.3769 170.709 97.9253 169.795C98.4738 168.882 98.7527 167.831 98.7297 166.766C98.7067 165.7 98.3827 164.663 97.7953 163.774C97.2079 162.884 96.381 162.179 95.41 161.74V161.69Z" fill="white"/>
<path d="M120.2 161.69V150.89C121.18 150.447 122.013 149.733 122.601 148.833C123.19 147.933 123.509 146.884 123.521 145.808C123.534 144.733 123.239 143.676 122.672 142.763C122.105 141.849 121.289 141.116 120.32 140.65V145.27C119.54 145.702 118.711 146.038 117.85 146.27L115.29 145.27V140.69C114.339 141.171 113.543 141.911 112.995 142.825C112.446 143.738 112.167 144.789 112.19 145.854C112.213 146.92 112.537 147.957 113.125 148.846C113.712 149.736 114.539 150.441 115.51 150.88V161.68C114.533 162.125 113.703 162.839 113.116 163.738C112.529 164.638 112.211 165.685 112.197 166.759C112.183 167.832 112.475 168.888 113.039 169.802C113.603 170.715 114.415 171.45 115.38 171.92V167.34C116.161 166.91 116.99 166.574 117.85 166.34L120.42 167.34V171.93C121.371 171.449 122.167 170.709 122.715 169.795C123.264 168.882 123.543 167.831 123.52 166.766C123.497 165.7 123.173 164.663 122.585 163.774C121.998 162.884 121.171 162.179 120.2 161.74V161.69Z" fill="white"/>
<path d="M145 161.69V150.89C145.98 150.447 146.813 149.733 147.401 148.833C147.99 147.933 148.309 146.884 148.321 145.808C148.334 144.733 148.039 143.676 147.472 142.763C146.905 141.849 146.089 141.116 145.12 140.65V145.27C144.339 145.7 143.51 146.036 142.65 146.27L140.09 145.27V140.69C139.136 141.168 138.336 141.907 137.785 142.821C137.234 143.736 136.954 144.787 136.977 145.855C137 146.922 137.325 147.961 137.915 148.85C138.505 149.74 139.336 150.444 140.31 150.88V161.68C139.33 162.122 138.496 162.835 137.907 163.735C137.317 164.634 136.997 165.683 136.984 166.759C136.97 167.834 137.263 168.891 137.83 169.805C138.396 170.719 139.211 171.453 140.18 171.92V167.34C140.961 166.91 141.79 166.574 142.65 166.34L145.22 167.34V171.93C146.171 171.449 146.967 170.709 147.515 169.795C148.064 168.882 148.343 167.831 148.32 166.766C148.297 165.7 147.973 164.663 147.385 163.774C146.798 162.884 145.971 162.179 145 161.74V161.69Z" fill="white"/>
<path opacity="0.3" d="M219 77.16C218.938 77.16 218.878 77.1388 218.83 77.1C218.784 77.0515 218.758 76.987 218.758 76.92C218.758 76.8529 218.784 76.7884 218.83 76.74L224.47 70.52C224.517 70.4741 224.58 70.4485 224.645 70.4485C224.71 70.4485 224.773 70.4741 224.82 70.52C224.866 70.5684 224.892 70.6329 224.892 70.7C224.892 70.767 224.866 70.8315 224.82 70.88L219.19 77.1C219.137 77.1434 219.069 77.1649 219 77.16Z" fill="black"/>
<path opacity="0.3" d="M70.77 77.16C70.7021 77.157 70.6378 77.1284 70.59 77.08L64.59 70.7801C64.5442 70.7333 64.5186 70.6705 64.5186 70.605C64.5186 70.5396 64.5442 70.4768 64.59 70.4301C64.6384 70.3836 64.7029 70.3577 64.77 70.3577C64.8371 70.3577 64.9016 70.3836 64.95 70.4301L70.95 76.73C70.9958 76.7768 71.0215 76.8396 71.0215 76.9051C71.0215 76.9705 70.9958 77.0333 70.95 77.08C70.9274 77.1054 70.8996 77.1256 70.8686 77.1394C70.8376 77.1532 70.804 77.1602 70.77 77.16Z" fill="black"/>
<path opacity="0.3" d="M65 186.91C64.9381 186.91 64.8781 186.889 64.83 186.85C64.7835 186.802 64.7576 186.737 64.7576 186.67C64.7576 186.603 64.7835 186.538 64.83 186.49L70.42 180.27C70.4667 180.224 70.5295 180.199 70.595 180.199C70.6604 180.199 70.7232 180.224 70.77 180.27C70.8164 180.318 70.8423 180.383 70.8423 180.45C70.8423 180.517 70.8164 180.582 70.77 180.63L65.13 186.85C65.0928 186.881 65.0479 186.902 65 186.91Z" fill="black"/>
<path opacity="0.3" d="M224.85 186.99C224.816 186.99 224.783 186.982 224.752 186.969C224.721 186.955 224.693 186.935 224.67 186.91L218.67 180.61C218.646 180.588 218.627 180.561 218.614 180.53C218.601 180.5 218.594 180.468 218.594 180.435C218.594 180.402 218.601 180.37 218.614 180.34C218.627 180.31 218.646 180.283 218.67 180.26C218.693 180.236 218.721 180.217 218.752 180.204C218.783 180.19 218.816 180.184 218.85 180.184C218.884 180.184 218.917 180.19 218.948 180.204C218.979 180.217 219.007 180.236 219.03 180.26L225.03 186.56C225.076 186.607 225.101 186.67 225.101 186.735C225.101 186.801 225.076 186.863 225.03 186.91C224.982 186.958 224.918 186.986 224.85 186.99Z" fill="black"/>
<path d="M125.68 192.1H82C81.9337 192.1 81.8701 192.074 81.8232 192.027C81.7763 191.98 81.75 191.916 81.75 191.85C81.75 191.784 81.7763 191.72 81.8232 191.673C81.8701 191.626 81.9337 191.6 82 191.6H125.68C125.746 191.6 125.81 191.626 125.857 191.673C125.904 191.72 125.93 191.784 125.93 191.85C125.93 191.916 125.904 191.98 125.857 192.027C125.81 192.074 125.746 192.1 125.68 192.1Z" fill="#006A8E"/>
<path d="M134.15 192.1H128.69C128.624 192.1 128.56 192.074 128.513 192.027C128.466 191.98 128.44 191.916 128.44 191.85C128.44 191.784 128.466 191.72 128.513 191.673C128.56 191.626 128.624 191.6 128.69 191.6H134.15C134.216 191.6 134.28 191.626 134.327 191.673C134.374 191.72 134.4 191.784 134.4 191.85C134.4 191.916 134.374 191.98 134.327 192.027C134.28 192.074 134.216 192.1 134.15 192.1Z" fill="#006A8E"/>
<path d="M213.15 66.0601H170.34C170.274 66.0601 170.21 66.0337 170.163 65.9868C170.116 65.9399 170.09 65.8764 170.09 65.8101C170.09 65.7438 170.116 65.6802 170.163 65.6333C170.21 65.5864 170.274 65.5601 170.34 65.5601H213.15C213.216 65.5601 213.28 65.5864 213.327 65.6333C213.374 65.6802 213.4 65.7438 213.4 65.8101C213.4 65.8764 213.374 65.9399 213.327 65.9868C213.28 66.0337 213.216 66.0601 213.15 66.0601Z" fill="#006A8E"/>
<path d="M174.44 140.27V117.79H169.66V140.27C169.66 143.06 168.9 151.05 168.9 155.27C168.9 167.21 168.9 167.21 172.05 167.21C175.2 167.21 175.2 167.21 175.2 155.27C175.2 151 174.44 143.03 174.44 140.27Z" fill="black"/>
<path d="M168.9 155.27C168.9 151.02 169.66 143.03 169.66 140.27H174.44C174.44 143.08 175.2 151.05 175.2 155.27C175.2 167.21 175.2 167.21 172.05 167.21C168.9 167.21 168.9 167.19 168.9 155.27Z" fill="black"/>
<path d="M183.74 119.87H160.31C159.43 114.35 159.16 109.27 160.31 105.24H183.74C184.477 110.089 184.477 115.021 183.74 119.87Z" fill="black"/>
<path d="M194.23 152.41H195.53V149.78C195.529 149.693 195.509 149.608 195.47 149.53L195.08 148.68C194.992 148.489 194.948 148.28 194.95 148.07V126.77H193.57V148.04C193.572 148.27 193.517 148.496 193.41 148.7L192.99 149.52C192.95 149.608 192.93 149.703 192.93 149.8V152.41H194.23Z" fill="black"/>
<path d="M196.74 125.27C197.075 122.426 197.199 119.562 197.11 116.7C197.11 104.7 197.11 104.7 194.23 104.7C191.35 104.7 191.34 104.7 191.34 116.7C191.249 119.562 191.376 122.427 191.72 125.27H196.74Z" fill="black"/>
<path d="M196.86 125.26H191.6C191.114 125.26 190.72 125.654 190.72 126.14V126.84C190.72 127.326 191.114 127.72 191.6 127.72H196.86C197.346 127.72 197.74 127.326 197.74 126.84V126.14C197.74 125.654 197.346 125.26 196.86 125.26Z" fill="black"/>
<path d="M205 152.41H206.3V149.78C206.298 149.694 206.281 149.61 206.25 149.53L205.86 148.68C205.769 148.49 205.721 148.281 205.72 148.07V126.77H204.34V148.04C204.34 148.269 204.289 148.494 204.19 148.7L203.77 149.52C203.722 149.605 203.698 149.702 203.7 149.8V152.41H205Z" fill="black"/>
<path d="M207.54 125.27C207.875 122.426 207.999 119.562 207.91 116.7C207.91 104.7 207.91 104.7 205.03 104.7C202.15 104.7 202.15 104.7 202.15 116.7C202.061 119.562 202.185 122.426 202.52 125.27H207.54Z" fill="black"/>
<path d="M207.66 125.26H202.4C201.914 125.26 201.52 125.654 201.52 126.14V126.84C201.52 127.326 201.914 127.72 202.4 127.72H207.66C208.146 127.72 208.54 127.326 208.54 126.84V126.14C208.54 125.654 208.146 125.26 207.66 125.26Z" fill="black"/>
<path d="M147.45 396.21L135.81 411.16L131.64 410.52L143.91 396.21H147.45Z" fill="#006A8E"/>
<path opacity="0.3" d="M147.45 396.21L135.81 411.16L131.64 410.52L143.91 396.21H147.45Z" fill="black"/>
<path d="M143.91 382.08L132.27 397.02L128.1 396.39L140.38 382.08H143.91Z" fill="#006A8E"/>
<path opacity="0.3" d="M143.91 382.08L132.27 397.02L128.1 396.39L140.38 382.08H143.91Z" fill="black"/>
<path d="M110.45 374.42H60.1899L71.9799 405.55H122.24L110.45 374.42Z" fill="#006A8E"/>
<path opacity="0.3" d="M110.45 374.42H60.1899L71.9799 405.55H122.24L110.45 374.42Z" fill="black"/>
<path d="M149.47 393.77H69.62V397.79H149.47V393.77Z" fill="#006A8E"/>
<path opacity="0.2" d="M100.27 393.77H69.62V397.79H100.27V393.77Z" fill="black"/>
<path d="M144.76 381.98H64.9099V386H144.76V381.98Z" fill="#006A8E"/>
<path opacity="0.2" d="M95.5599 381.98H64.9099V386H95.5599V381.98Z" fill="black"/>
<path d="M60.27 374.63L57.48 377.87L68.08 405.64H72.23L60.27 374.63Z" fill="#006A8E"/>
<path d="M169.6 390.91L175 392.27C174.793 390.81 174.172 389.439 173.212 388.319C172.252 387.2 170.992 386.378 169.58 385.95C167.896 385.562 166.128 385.792 164.599 386.597C163.07 387.403 161.882 388.731 161.25 390.34C160.788 391.46 160.663 392.69 160.89 393.88L128.36 413.45C124.55 410.25 120.04 412.66 118.18 415.27L123.55 416.57C124.143 416.72 124.655 417.095 124.977 417.615C125.299 418.135 125.407 418.76 125.277 419.358C125.147 419.956 124.791 420.48 124.282 420.82C123.773 421.16 123.152 421.289 122.55 421.18L122.38 421.13L117 419.77C117.208 421.231 117.828 422.603 118.788 423.724C119.748 424.846 121.008 425.67 122.42 426.1C124.1 426.521 125.876 426.326 127.424 425.55C128.973 424.774 130.192 423.468 130.86 421.87C131.352 420.83 131.519 419.666 131.34 418.53L163.87 398.96C167.07 401.15 172.11 399.56 173.94 396.96L168.51 395.55C168.208 395.481 167.923 395.352 167.671 395.172C167.419 394.992 167.205 394.764 167.042 394.501C166.878 394.238 166.768 393.945 166.718 393.64C166.668 393.334 166.679 393.021 166.75 392.72V392.67C166.895 392.059 167.276 391.53 167.811 391.2C168.345 390.87 168.989 390.766 169.6 390.91Z" fill="#006A8E"/>
<path opacity="0.6" d="M169.6 390.91L175 392.27C174.793 390.81 174.172 389.439 173.212 388.319C172.252 387.2 170.992 386.378 169.58 385.95C167.896 385.562 166.128 385.792 164.599 386.597C163.07 387.403 161.882 388.731 161.25 390.34C160.788 391.46 160.663 392.69 160.89 393.88L128.36 413.45C124.55 410.25 120.04 412.66 118.18 415.27L123.55 416.57C124.143 416.72 124.655 417.095 124.977 417.615C125.299 418.135 125.407 418.76 125.277 419.358C125.147 419.956 124.791 420.48 124.282 420.82C123.773 421.16 123.152 421.289 122.55 421.18L122.38 421.13L117 419.77C117.208 421.231 117.828 422.603 118.788 423.724C119.748 424.846 121.008 425.67 122.42 426.1C124.1 426.521 125.876 426.326 127.424 425.55C128.973 424.774 130.192 423.468 130.86 421.87C131.352 420.83 131.519 419.666 131.34 418.53L163.87 398.96C167.07 401.15 172.11 399.56 173.94 396.96L168.51 395.55C168.208 395.481 167.923 395.352 167.671 395.172C167.419 394.992 167.205 394.764 167.042 394.501C166.878 394.238 166.768 393.945 166.718 393.64C166.668 393.334 166.679 393.021 166.75 392.72V392.67C166.895 392.059 167.276 391.53 167.811 391.2C168.345 390.87 168.989 390.766 169.6 390.91Z" fill="white"/>
<path d="M158.91 405.55H71.98V430.93H158.91V405.55Z" fill="#006A8E"/>
<path opacity="0.2" d="M106.16 405.55H71.98V430.93H106.16V405.55Z" fill="black"/>
<path d="M41.4499 424.48L37.5299 420.55C36.9437 421.91 36.7603 423.409 37.0014 424.87C37.2425 426.33 37.898 427.691 38.8899 428.79C40.1344 429.995 41.7714 430.712 43.5012 430.81C45.2311 430.907 46.9381 430.378 48.3099 429.32C49.2845 428.602 50.0282 427.615 50.4499 426.48L88.4499 426.54C90.0599 431.25 95.1699 431.54 98.1199 430.25L94.1799 426.35C93.9462 426.135 93.7583 425.875 93.6278 425.586C93.4973 425.296 93.4268 424.983 93.4206 424.666C93.4144 424.348 93.4726 424.033 93.5917 423.739C93.7108 423.444 93.8883 423.177 94.1135 422.953C94.3387 422.729 94.6069 422.553 94.902 422.436C95.1971 422.319 95.5129 422.262 95.8303 422.271C96.1477 422.279 96.4602 422.351 96.7489 422.483C97.0376 422.616 97.2965 422.805 97.5099 423.04L101.44 426.98C102.022 425.617 102.201 424.115 101.957 422.653C101.712 421.191 101.054 419.83 100.06 418.73C98.8408 417.495 97.2177 416.741 95.4878 416.605C93.7579 416.469 92.037 416.961 90.6399 417.99C89.6816 418.628 88.939 419.542 88.5099 420.61L50.5099 420.55C48.8999 417.01 43.7999 415.84 40.8599 417.01L44.7799 421.01C44.9992 421.228 45.1731 421.488 45.2918 421.774C45.4105 422.059 45.4715 422.366 45.4715 422.675C45.4715 422.984 45.4105 423.291 45.2918 423.577C45.1731 423.862 44.9992 424.122 44.7799 424.34C44.3565 424.799 43.7681 425.072 43.1439 425.098C42.5197 425.125 41.9105 424.902 41.4499 424.48Z" fill="#006A8E"/>
<path opacity="0.6" d="M41.4499 424.48L37.5299 420.55C36.9437 421.91 36.7603 423.409 37.0014 424.87C37.2425 426.33 37.898 427.691 38.8899 428.79C40.1344 429.995 41.7714 430.712 43.5012 430.81C45.2311 430.907 46.9381 430.378 48.3099 429.32C49.2845 428.602 50.0282 427.615 50.4499 426.48L88.4499 426.54C90.0599 431.25 95.1699 431.54 98.1199 430.25L94.1799 426.35C93.9462 426.135 93.7583 425.875 93.6278 425.586C93.4973 425.296 93.4268 424.983 93.4206 424.666C93.4144 424.348 93.4726 424.033 93.5917 423.739C93.7108 423.444 93.8883 423.177 94.1135 422.953C94.3387 422.729 94.6069 422.553 94.902 422.436C95.1971 422.319 95.5129 422.262 95.8303 422.271C96.1477 422.279 96.4602 422.351 96.7489 422.483C97.0376 422.616 97.2965 422.805 97.5099 423.04L101.44 426.98C102.022 425.617 102.201 424.115 101.957 422.653C101.712 421.191 101.054 419.83 100.06 418.73C98.8408 417.495 97.2177 416.741 95.4878 416.605C93.7579 416.469 92.037 416.961 90.6399 417.99C89.6816 418.628 88.939 419.542 88.5099 420.61L50.5099 420.55C48.8999 417.01 43.7999 415.84 40.8599 417.01L44.7799 421.01C44.9992 421.228 45.1731 421.488 45.2918 421.774C45.4105 422.059 45.4715 422.366 45.4715 422.675C45.4715 422.984 45.4105 423.291 45.2918 423.577C45.1731 423.862 44.9992 424.122 44.7799 424.34C44.3565 424.799 43.7681 425.072 43.1439 425.098C42.5197 425.125 41.9105 424.902 41.4499 424.48Z" fill="white"/>
<path d="M242.31 235.8H235.74V421.96H242.31V235.8Z" fill="#263238"/>
<g opacity="0.7">
<path d="M242.31 235.8H235.74V421.96H242.31V235.8Z" fill="white"/>
</g>
<path d="M264.91 421.96H213.14V424.1H264.91V421.96Z" fill="#263238"/>
<g opacity="0.4">
<path d="M264.91 421.96H213.14V424.1H264.91V421.96Z" fill="white"/>
</g>
<path d="M177.66 330.79C178.108 330.609 178.579 330.491 179.06 330.44H179.14H179.22L245.85 318.03C248.056 317.745 250.291 318.275 252.134 319.521C253.977 320.767 255.301 322.643 255.859 324.797C256.416 326.951 256.168 329.234 255.161 331.217C254.154 333.201 252.457 334.749 250.39 335.57C249.7 335.848 248.977 336.04 248.24 336.14L180.24 340.93C178.976 341.061 177.707 340.731 176.667 340.002C175.626 339.273 174.883 338.194 174.574 336.961C174.266 335.728 174.412 334.426 174.986 333.292C175.56 332.159 176.524 331.27 177.7 330.79M176.84 328.64C175.105 329.298 173.67 330.569 172.808 332.212C171.947 333.856 171.717 335.759 172.163 337.56C172.608 339.362 173.699 340.938 175.228 341.99C176.757 343.042 178.618 343.497 180.46 343.27L248.46 338.45C249.409 338.321 250.339 338.08 251.23 337.73C253.842 336.707 255.988 334.76 257.26 332.259C258.532 329.758 258.842 326.877 258.13 324.164C257.418 321.45 255.735 319.091 253.399 317.537C251.064 315.982 248.238 315.339 245.46 315.73L178.75 328.13C178.063 328.197 177.39 328.362 176.75 328.62L176.84 328.64Z" fill="#263238"/>
<path opacity="0.7" d="M177.66 330.79C178.108 330.609 178.579 330.491 179.06 330.44H179.14H179.22L245.85 318.03C248.056 317.745 250.291 318.275 252.134 319.521C253.977 320.767 255.301 322.643 255.859 324.797C256.416 326.951 256.168 329.234 255.161 331.217C254.154 333.201 252.457 334.749 250.39 335.57C249.7 335.848 248.977 336.04 248.24 336.14L180.24 340.93C178.976 341.061 177.707 340.731 176.667 340.002C175.626 339.273 174.883 338.194 174.574 336.961C174.266 335.728 174.412 334.426 174.986 333.292C175.56 332.159 176.524 331.27 177.7 330.79M176.84 328.64C175.105 329.298 173.67 330.569 172.808 332.212C171.947 333.856 171.717 335.759 172.163 337.56C172.608 339.362 173.699 340.938 175.228 341.99C176.757 343.042 178.618 343.497 180.46 343.27L248.46 338.45C249.409 338.321 250.339 338.08 251.23 337.73C253.842 336.707 255.988 334.76 257.26 332.259C258.532 329.758 258.842 326.877 258.13 324.164C257.418 321.45 255.735 319.091 253.399 317.537C251.064 315.982 248.238 315.339 245.46 315.73L178.75 328.13C178.063 328.197 177.39 328.362 176.75 328.62L176.84 328.64Z" fill="white"/>
<path d="M247.86 329.27C247.764 329.32 247.664 329.36 247.56 329.39C247.171 329.486 246.764 329.48 246.378 329.371C245.992 329.262 245.641 329.055 245.36 328.77L170.85 253.49C170.637 253.274 170.468 253.018 170.353 252.737C170.239 252.456 170.181 252.155 170.183 251.851C170.185 251.547 170.246 251.247 170.364 250.967C170.482 250.687 170.654 250.433 170.87 250.22C171.086 250.007 171.342 249.838 171.623 249.723C171.904 249.609 172.205 249.551 172.509 249.553C172.813 249.555 173.113 249.616 173.393 249.734C173.673 249.852 173.927 250.024 174.14 250.24L245.94 322.76L275.88 227.39C276.064 226.805 276.473 226.318 277.017 226.034C277.561 225.751 278.195 225.696 278.78 225.88C279.365 226.064 279.852 226.473 280.136 227.017C280.419 227.561 280.474 228.195 280.29 228.78L249.23 327.78C249.13 328.116 248.954 328.425 248.717 328.683C248.479 328.941 248.186 329.142 247.86 329.27Z" fill="#006A8E"/>
<path d="M180.2 337.12C179.82 337.266 179.399 337.257 179.025 337.097C178.652 336.936 178.355 336.636 178.2 336.26C178.117 336.047 178.082 335.818 178.1 335.59L182.53 263.41C182.561 263.022 182.737 262.659 183.024 262.395C183.31 262.131 183.685 261.984 184.075 261.984C184.464 261.984 184.84 262.131 185.126 262.395C185.412 262.659 185.589 263.022 185.62 263.41C185.625 263.463 185.625 263.517 185.62 263.57L181.19 335.74C181.176 336.041 181.075 336.332 180.899 336.577C180.723 336.821 180.481 337.01 180.2 337.12Z" fill="#006A8E"/>
<path d="M317.58 282.92C317.103 283.112 316.576 283.14 316.081 282.999C315.587 282.858 315.153 282.555 314.85 282.14L270.73 221.95L185.11 265.56C184.838 265.699 184.542 265.782 184.238 265.806C183.933 265.83 183.627 265.794 183.337 265.7C183.047 265.605 182.778 265.455 182.546 265.257C182.314 265.059 182.124 264.817 181.985 264.545C181.846 264.273 181.763 263.977 181.739 263.673C181.715 263.368 181.751 263.062 181.845 262.772C181.94 262.482 182.09 262.213 182.288 261.981C182.486 261.749 182.728 261.559 183 261.42L270.38 216.91C270.87 216.661 271.432 216.593 271.967 216.719C272.501 216.846 272.974 217.158 273.3 217.6L318.58 279.38C318.759 279.625 318.889 279.903 318.961 280.198C319.033 280.492 319.046 280.799 318.999 281.099C318.953 281.399 318.848 281.686 318.69 281.946C318.532 282.205 318.325 282.431 318.08 282.61C317.93 282.737 317.761 282.842 317.58 282.92Z" fill="#006A8E"/>
<path d="M272.29 221.14C271.77 221.351 271.192 221.367 270.662 221.183C270.132 220.999 269.687 220.628 269.41 220.14L259.75 203.43C259.597 203.167 259.497 202.877 259.456 202.576C259.416 202.275 259.434 201.968 259.512 201.675C259.59 201.381 259.724 201.105 259.908 200.863C260.092 200.621 260.322 200.418 260.585 200.265C260.848 200.112 261.138 200.012 261.439 199.971C261.74 199.931 262.047 199.949 262.34 200.027C262.634 200.105 262.91 200.239 263.152 200.423C263.394 200.607 263.597 200.837 263.75 201.1L273.46 217.8C273.612 218.063 273.711 218.354 273.751 218.655C273.79 218.957 273.77 219.263 273.691 219.556C273.612 219.85 273.476 220.125 273.29 220.366C273.105 220.607 272.874 220.809 272.61 220.96L272.29 221.14Z" fill="#006A8E"/>
<path d="M157.47 257.44C162.02 259.5 176.84 249.03 181.01 245.52C185.18 242.01 188.39 242.35 185.26 239.27C182.69 236.75 173.61 241.83 167.17 244.49C165.537 245.188 163.813 245.649 162.05 245.86C154.56 246.67 148.46 252.21 157.47 257.44Z" fill="#263238"/>
<path d="M250.39 353.87C250.202 353.946 250.001 353.984 249.799 353.982C249.596 353.98 249.396 353.938 249.21 353.858C249.024 353.778 248.856 353.662 248.715 353.516C248.574 353.371 248.464 353.199 248.39 353.01C248.334 352.883 248.297 352.748 248.28 352.61L242.65 301.87C242.64 301.482 242.776 301.104 243.032 300.812C243.287 300.519 243.643 300.333 244.029 300.29C244.415 300.248 244.803 300.351 245.116 300.581C245.429 300.81 245.645 301.149 245.72 301.53L251.34 352.27C251.376 352.604 251.303 352.94 251.132 353.228C250.96 353.517 250.7 353.742 250.39 353.87Z" fill="#263238"/>
<path d="M248.32 301.72L235.66 306.78C235.471 306.861 235.267 306.904 235.062 306.906C234.856 306.907 234.652 306.867 234.462 306.789C234.272 306.71 234.099 306.594 233.954 306.448C233.81 306.301 233.696 306.127 233.62 305.936C233.544 305.745 233.507 305.54 233.511 305.335C233.515 305.129 233.56 304.926 233.644 304.738C233.728 304.55 233.849 304.381 233.999 304.24C234.15 304.1 234.327 303.991 234.52 303.92L247.17 298.85C247.543 298.731 247.947 298.758 248.302 298.925C248.656 299.092 248.934 299.387 249.079 299.75C249.225 300.114 249.228 300.519 249.087 300.884C248.946 301.25 248.672 301.548 248.32 301.72Z" fill="#263238"/>
<path d="M259.49 350.27L246.84 355.27C246.652 355.346 246.451 355.383 246.249 355.381C246.047 355.379 245.847 355.337 245.66 355.258C245.474 355.178 245.306 355.063 245.164 354.918C245.022 354.774 244.911 354.603 244.835 354.415C244.76 354.227 244.722 354.026 244.724 353.824C244.726 353.622 244.768 353.422 244.847 353.235C244.927 353.049 245.042 352.881 245.187 352.739C245.331 352.597 245.502 352.486 245.69 352.41L258.34 347.34C258.713 347.221 259.117 347.248 259.472 347.415C259.826 347.582 260.104 347.877 260.249 348.24C260.395 348.604 260.398 349.009 260.257 349.374C260.116 349.74 259.842 350.038 259.49 350.21V350.27Z" fill="#263238"/>
<path d="M251.51 209.33C251.146 209.332 250.786 209.253 250.455 209.099C250.125 208.945 249.833 208.72 249.6 208.44C249.172 207.934 248.963 207.28 249.017 206.62C249.071 205.96 249.385 205.349 249.89 204.92L271.22 186.92C273.403 185.066 276.197 184.09 279.059 184.18C281.922 184.27 284.649 185.42 286.711 187.408C288.773 189.395 290.023 192.078 290.219 194.935C290.415 197.792 289.542 200.62 287.77 202.87L286.77 204.11C286.566 204.368 286.314 204.583 286.027 204.744C285.74 204.904 285.425 205.007 285.098 205.045C284.772 205.084 284.441 205.058 284.125 204.969C283.809 204.879 283.513 204.729 283.255 204.525C282.997 204.321 282.781 204.069 282.621 203.782C282.46 203.495 282.358 203.18 282.319 202.853C282.281 202.527 282.307 202.196 282.396 201.88C282.486 201.564 282.636 201.268 282.84 201.01L283.84 199.78C284.803 198.5 285.263 196.911 285.133 195.314C285.004 193.717 284.294 192.223 283.137 191.115C281.981 190.006 280.458 189.36 278.857 189.298C277.256 189.237 275.688 189.764 274.45 190.78L253.11 208.78C252.658 209.146 252.091 209.341 251.51 209.33Z" fill="#263238"/>
<path d="M174.92 380.9L174.42 380.85L179.33 336.07L136.04 353.41L135.85 352.95L179.92 335.3L174.92 380.9Z" fill="#E0E0E0"/>
<path d="M179.25 335.79L179.31 335.44L186.07 292.09L186.56 292.17L179.85 335.16L222.31 326.49L222.41 326.98L179.25 335.79Z" fill="#E0E0E0"/>
<path d="M208.76 367.32L179.39 335.67C166.76 327.81 142.69 312.89 141.77 312.57L141.89 312.09C142.69 312.25 173.51 331.42 179.69 335.26L179.74 335.31L209.13 366.98L208.76 367.32Z" fill="#E0E0E0"/>
<path d="M174.88 380.9L174.39 380.85L179.3 336.07L136 353.41L135.82 352.95L179.89 335.3L174.88 380.9Z" fill="#E0E0E0"/>
<path d="M179.22 335.79L179.27 335.44L186.04 292.09L186.53 292.17L179.82 335.16L222.28 326.49L222.38 326.98L179.22 335.79Z" fill="#E0E0E0"/>
<path d="M208.73 367.32L179.36 335.67C166.73 327.81 142.65 312.89 141.74 312.57L141.85 312.09C142.66 312.25 173.48 331.42 179.65 335.26V335.31L209.04 366.98L208.73 367.32Z" fill="#E0E0E0"/>
<path d="M151.51 371.95L151.12 371.64L179.32 336.51L133.48 327.88L133.58 327.39L180.23 336.17L151.51 371.95Z" fill="#E0E0E0"/>
<path d="M220.54 351.98L179.4 336.23L179.64 335.96L208.62 303.03L209 303.36L180.25 336.02L220.72 351.51L220.54 351.98Z" fill="#E0E0E0"/>
<path d="M187.36 378.67L179.58 336.2C173.15 322.79 160.86 297.27 160.26 296.51L160.62 296.16C161.2 296.74 176.91 329.46 180.05 336.01V336.08L187.83 378.58L187.36 378.67Z" fill="#E0E0E0"/>
<path d="M164.33 297.48C171.885 294.455 180.167 293.738 188.13 295.419C196.092 297.101 203.377 301.106 209.064 306.928C214.75 312.75 218.583 320.127 220.077 328.127C221.571 336.126 220.66 344.39 217.458 351.871C214.256 359.353 208.907 365.718 202.089 370.16C195.27 374.602 187.287 376.923 179.149 376.829C171.012 376.734 163.085 374.229 156.371 369.63C149.657 365.031 144.458 358.544 141.43 350.99C137.383 340.858 137.522 329.534 141.815 319.504C146.108 309.473 154.206 301.556 164.33 297.49M162.13 292.01C153.489 295.47 146.069 301.415 140.806 309.092C135.544 316.77 132.677 325.835 132.567 335.142C132.457 344.449 135.11 353.58 140.189 361.38C145.269 369.179 152.547 375.297 161.104 378.96C169.661 382.623 179.111 383.666 188.261 381.958C197.411 380.25 205.848 375.867 212.507 369.363C219.165 362.859 223.746 354.527 225.669 345.42C227.592 336.313 226.771 326.84 223.31 318.2C221.014 312.462 217.611 307.232 213.293 302.809C208.976 298.387 203.829 294.858 198.148 292.425C192.466 289.992 186.361 288.702 180.181 288.629C174.001 288.556 167.867 289.702 162.13 292V292.01Z" fill="#263238"/>
<path d="M186.598 338.649C188.235 334.796 186.439 330.346 182.586 328.709C178.733 327.071 174.282 328.868 172.645 332.721C171.008 336.574 172.805 341.024 176.658 342.661C180.511 344.298 184.961 342.502 186.598 338.649Z" fill="#263238"/>
<path d="M243.6 241.37H234.03V233.61L243.6 229.4V241.37Z" fill="#263238"/>
<path opacity="0.3" d="M243.6 241.37H234.03V233.61L243.6 229.4V241.37Z" fill="white"/>
<path d="M176.81 328.64C178.202 328.083 179.727 327.952 181.194 328.262C182.66 328.572 184.001 329.31 185.049 330.382C186.096 331.455 186.801 332.814 187.076 334.287C187.351 335.761 187.183 337.282 186.594 338.66C186.004 340.038 185.019 341.211 183.763 342.029C182.507 342.847 181.037 343.275 179.538 343.257C178.039 343.24 176.579 342.779 175.343 341.932C174.106 341.086 173.148 339.891 172.59 338.5C171.847 336.633 171.873 334.547 172.664 332.699C173.455 330.851 174.946 329.391 176.81 328.64Z" fill="#263238"/>
<path d="M242.74 316.48C240.638 317.323 238.833 318.77 237.554 320.638C236.275 322.506 235.578 324.712 235.552 326.976C235.526 329.241 236.172 331.462 237.408 333.359C238.644 335.256 240.416 336.744 242.497 337.635C244.579 338.525 246.879 338.779 249.105 338.363C251.33 337.947 253.383 336.88 255.003 335.298C256.622 333.715 257.737 331.688 258.204 329.472C258.672 327.257 258.472 324.952 257.63 322.85C256.502 320.034 254.303 317.78 251.515 316.583C248.727 315.387 245.578 315.346 242.76 316.47L242.74 316.48Z" fill="#263238"/>
<path d="M374.9 398.12L367.63 417.76L361.04 415.63L363.31 394.9L374.9 398.12Z" fill="#B97964"/>
<path d="M368.34 426.02H362.34C361.754 425.69 361.101 425.495 360.43 425.45C359.72 425.53 357.25 425.98 357.25 425.98L341.37 425.86C341.492 425.257 341.653 424.663 341.85 424.08C342.043 423.507 342.298 422.958 342.61 422.44C342.998 421.77 343.553 421.211 344.22 420.819C344.888 420.426 345.646 420.213 346.42 420.2C348.64 420.08 355.67 415.46 355.67 415.46C356.413 415.183 357.063 414.7 357.542 414.068C358.022 413.436 358.313 412.681 358.38 411.89C358.533 411.342 358.821 410.842 359.217 410.435C359.614 410.028 360.107 409.727 360.65 409.56C362.11 409.36 362.91 410.28 363.11 411.74L363.34 413.43L366.7 412.93C366.7 412.93 370.12 411.24 369.94 412.93C369.84 413.93 369.24 418.12 368.85 421.48C368.76 422.26 368.68 423.01 368.6 423.66C368.46 425.03 368.34 426.02 368.34 426.02Z" fill="#263238"/>
<g opacity="0.2">
<path d="M341.39 425.82L357.27 425.94C357.27 425.94 359.74 425.49 360.45 425.41C361.121 425.455 361.774 425.65 362.36 425.98H368.36C368.36 425.98 368.48 424.98 368.64 423.55L341.89 424C341.684 424.595 341.517 425.203 341.39 425.82Z" fill="white"/>
</g>
<path d="M352.2 417.13C352.238 417.098 352.286 417.081 352.335 417.081C352.384 417.081 352.432 417.098 352.47 417.13C352.878 417.403 353.203 417.784 353.41 418.23C353.53 418.47 353.17 418.71 353.05 418.46C352.871 418.059 352.588 417.714 352.23 417.46C352.205 417.439 352.185 417.413 352.171 417.384C352.157 417.355 352.15 417.322 352.15 417.29C352.15 417.257 352.157 417.225 352.171 417.196C352.185 417.167 352.205 417.141 352.23 417.12L352.2 417.13Z" fill="#006A8E"/>
<path d="M353.46 416.39C353.501 416.361 353.55 416.345 353.6 416.345C353.65 416.345 353.699 416.361 353.74 416.39C354.144 416.668 354.468 417.048 354.68 417.49C354.8 417.74 354.44 417.97 354.32 417.72C354.141 417.316 353.854 416.97 353.49 416.72C353.465 416.7 353.445 416.675 353.431 416.647C353.417 416.618 353.41 416.587 353.41 416.555C353.41 416.523 353.417 416.492 353.431 416.463C353.445 416.435 353.465 416.41 353.49 416.39H353.46Z" fill="#006A8E"/>
<path d="M354.77 415.71C354.81 415.679 354.859 415.662 354.91 415.662C354.961 415.662 355.01 415.679 355.05 415.71C355.458 415.984 355.784 416.364 355.99 416.81C356.1 417.05 355.75 417.29 355.63 417.04C355.448 416.639 355.161 416.293 354.8 416.04C354.775 416.019 354.755 415.993 354.741 415.964C354.727 415.935 354.72 415.903 354.72 415.87C354.72 415.837 354.727 415.805 354.741 415.776C354.755 415.747 354.775 415.721 354.8 415.7L354.77 415.71Z" fill="#006A8E"/>
<path d="M422.39 394.63L425.3 416L432.26 416.35L434.52 395.75L422.39 394.63Z" fill="#B97964"/>
<path d="M438.2 425.92H422.62C422.386 425.134 422.403 424.295 422.67 423.52C422.729 423.219 422.806 422.922 422.9 422.63C422.9 422.63 422.9 422.63 422.9 422.58C423.04 422.1 423.21 421.5 423.39 420.86C424.1 418.26 424.94 414.86 424.94 414.86C424.94 414.86 427.53 409.31 430.56 410.69C433.23 411.91 432.56 415.39 432.56 415.39C432.868 416.889 433.671 418.242 434.84 419.23C436.09 420.34 437.33 421.23 437.93 422.59C438.045 422.857 438.132 423.135 438.19 423.42C438.19 423.42 438.19 423.49 438.19 423.53C438.34 424.319 438.343 425.129 438.2 425.92Z" fill="#263238"/>
<g opacity="0.2">
<path d="M422.67 423.52C422.403 424.295 422.386 425.134 422.62 425.92H438.2C438.367 425.131 438.388 424.317 438.26 423.52H422.67Z" fill="white"/>
</g>
<path d="M432 416.27C431.592 415.944 431.077 415.781 430.555 415.815C430.034 415.848 429.543 416.075 429.18 416.45C429.136 416.49 429.078 416.511 429.018 416.509C428.959 416.507 428.903 416.482 428.861 416.439C428.82 416.396 428.796 416.339 428.796 416.28C428.796 416.22 428.819 416.163 428.86 416.12C429.311 415.663 429.916 415.392 430.557 415.361C431.198 415.329 431.827 415.54 432.32 415.95C432.56 416.13 432.23 416.45 432 416.27Z" fill="#006A8E"/>
<path d="M432.43 417.71C432.024 417.38 431.509 417.215 430.987 417.246C430.465 417.278 429.974 417.504 429.61 417.88C429.4 418.09 429.08 417.76 429.29 417.56C429.739 417.102 430.344 416.829 430.985 416.796C431.626 416.762 432.256 416.971 432.75 417.38C432.99 417.56 432.66 417.89 432.43 417.71Z" fill="#006A8E"/>
<path d="M432.87 419.04C432.462 418.714 431.947 418.551 431.425 418.585C430.904 418.618 430.413 418.845 430.05 419.22C429.84 419.43 429.52 419.1 429.73 418.89C430.181 418.433 430.786 418.162 431.427 418.131C432.068 418.099 432.697 418.31 433.19 418.72C433.43 418.9 433.1 419.22 432.87 419.04Z" fill="#006A8E"/>
<path d="M438.49 259.07L404.86 259.36L384.39 258.74C384.39 258.74 370.01 320.74 368.79 332.38C367.57 344.02 357.09 405.5 357.09 405.5L373 408.99C373 408.99 391.1 343.29 392.41 336.99C393.54 331.49 406.12 296.21 409.33 287.24C409.65 289.08 409.983 290.917 410.33 292.75C411.14 301.02 413.75 327.39 414.88 337.21C414.88 337.21 417.35 393.27 420.21 409.55H435.21C437.21 386.44 438.45 305.27 438.45 305.27C439.53 287.63 438.49 259.07 438.49 259.07Z" fill="#263238"/>
<g opacity="0.5">
<path d="M392.78 268C391.818 271.106 390.105 273.927 387.792 276.212C385.479 278.497 382.637 280.176 379.52 281.1C379.461 281.129 379.414 281.178 379.388 281.237C379.361 281.297 379.356 281.365 379.374 281.428C379.392 281.491 379.431 281.545 379.486 281.582C379.54 281.619 379.605 281.636 379.67 281.63C382.876 280.676 385.798 278.948 388.177 276.597C390.556 274.245 392.319 271.344 393.31 268.15C393.42 267.81 392.89 267.67 392.78 268Z" fill="black"/>
<path d="M409.87 268C409.49 273.47 409.13 278.95 408.76 284.42C408.76 284.77 408.2 284.77 408.22 284.42C408.41 281.61 408.59 278.8 408.78 275.99C407.43 276.99 405.85 275.76 405.41 274.37C404.806 272.003 404.844 269.518 405.52 267.17C405.539 267.1 405.584 267.04 405.647 267.003C405.71 266.967 405.785 266.956 405.855 266.975C405.925 266.994 405.985 267.039 406.022 267.102C406.059 267.165 406.069 267.24 406.05 267.31C405.651 268.894 405.499 270.53 405.6 272.16C405.611 273.032 405.788 273.894 406.12 274.7C406.56 275.54 407.65 276.26 408.52 275.49C408.564 275.459 408.616 275.442 408.67 275.442C408.724 275.442 408.776 275.459 408.82 275.49C408.98 273.01 409.15 270.49 409.32 268.04C409.34 267.65 409.88 267.65 409.87 268Z" fill="black"/>
<path d="M426 268.93C425.966 272.427 427.261 275.806 429.621 278.386C431.982 280.966 435.234 282.554 438.72 282.83C439.07 282.83 439.06 282.31 438.72 282.29C435.376 282.017 432.26 280.487 430 278.008C427.74 275.528 426.504 272.285 426.54 268.93C426.54 268.858 426.512 268.79 426.461 268.739C426.41 268.688 426.342 268.66 426.27 268.66C426.198 268.66 426.13 268.688 426.079 268.739C426.028 268.79 426 268.858 426 268.93Z" fill="black"/>
<path d="M429.49 339.66C431.721 340.475 434.169 340.475 436.4 339.66C436.73 339.54 436.59 339.02 436.26 339.14C434.121 339.93 431.769 339.93 429.63 339.14C429.31 339.02 429.16 339.54 429.49 339.66Z" fill="black"/>
</g>
<path d="M347.5 179.46C347.62 179.83 366.96 205.85 366.96 205.85L380.8 187.62C380.8 187.62 390.66 200.98 390.23 201.09C389.8 201.2 371.86 228.27 363.07 221.56C354.28 214.85 340.28 185.5 340.28 185.5L347.5 179.46Z" fill="#B97964"/>
<path opacity="0.2" d="M367 205.85C367 205.85 368.49 209.35 367.77 212.31C368.555 211.208 368.984 209.893 369 208.54C369.064 207.074 368.79 205.613 368.2 204.27L367 205.85Z" fill="black"/>
<path d="M397.64 171.9C403.4 176.1 404.12 187.9 386.32 213.34L372.18 198.4C375.85 191.94 379.03 188.77 384.46 181.08C393 169.16 397.64 171.9 397.64 171.9Z" fill="#006A8E"/>
<path d="M397.5 171.45C402.08 171.17 420.38 169.33 439.06 173.08L438 244.68C438 244.68 438.49 254.16 439.69 263.68C420.13 271.27 395 268.99 382.57 261.27C382.7 261.58 383.5 253.76 384.72 242.27C386.86 222.08 390.29 190.61 393.62 172.45C393.71 171.99 397.05 171.48 397.5 171.45Z" fill="#006A8E"/>
<path opacity="0.2" d="M388.25 210.52L391.18 187.77L384.53 211.45L386.31 213.34L388.25 210.52Z" fill="black"/>
<path opacity="0.2" d="M344.2 193.27C344.2 193.27 345.08 193.78 346.1 191.9C347.12 190.02 347.1 185.38 347.1 185.38L351.15 184.53L350 182.27L343.25 182.57L341.74 184.57L340.86 186.65L344.2 193.27Z" fill="black"/>
<path d="M350.52 269.62L350.02 269.57L354.93 224.79L311.64 242.13L311.45 241.67L355.52 224.02L355.48 224.43L350.52 269.62Z" fill="#E0E0E0"/>
<path d="M354.85 224.51L361.67 180.81L362.16 180.89L355.45 223.88L397.91 215.21L398.01 215.7L354.85 224.51Z" fill="#E0E0E0"/>
<path d="M384.36 256.03L355 224.39C342.37 216.53 318.29 201.61 317.38 201.29L317.5 200.8C318.3 200.97 349.12 220.14 355.29 223.98H355.34L384.74 255.65L384.36 256.03Z" fill="#E0E0E0"/>
<path d="M350.48 269.62L349.99 269.57L354.9 224.79L311.6 242.13L311.42 241.67L355.49 224.02L355.44 224.43L350.48 269.62Z" fill="#E0E0E0"/>
<path d="M354.81 224.51L361.63 180.81L362.13 180.89L355.42 223.88L397.88 215.21L397.98 215.7L354.81 224.51Z" fill="#E0E0E0"/>
<path d="M384.33 256.03L355 224.39C342.37 216.53 318.29 201.61 317.37 201.29L317.49 200.8C318.3 200.97 349.12 220.14 355.29 223.98H355.34L384.73 255.65L384.33 256.03Z" fill="#E0E0E0"/>
<path d="M327.11 260.67L326.72 260.36L354.92 225.23L309.08 216.6L309.17 216.11L355.83 224.89L327.11 260.67Z" fill="#E0E0E0"/>
<path d="M396.14 240.7L355 224.95L355.23 224.68L384.22 191.75L384.6 192.08L355.85 224.74L396.32 240.23L396.14 240.7Z" fill="#E0E0E0"/>
<path d="M363 267.39L355.22 224.92C348.79 211.51 336.5 185.99 335.89 185.23L336.25 184.88C336.84 185.46 352.54 218.18 355.69 224.73V224.8L363.47 267.3L363 267.39Z" fill="#E0E0E0"/>
<path d="M339.92 186.2C347.476 183.178 355.758 182.465 363.719 184.15C371.681 185.835 378.964 189.842 384.648 195.666C390.332 201.49 394.161 208.868 395.652 216.868C397.144 224.868 396.229 233.13 393.025 240.61C389.821 248.091 384.471 254.453 377.652 258.893C370.832 263.333 362.849 265.652 354.712 265.555C346.575 265.459 338.649 262.952 331.936 258.352C325.224 253.751 320.026 247.264 317 239.71C312.95 229.579 313.086 218.255 317.377 208.225C321.669 198.194 329.766 190.276 339.89 186.21M337.7 180.73C329.059 184.19 321.639 190.135 316.376 197.812C311.114 205.49 308.247 214.555 308.137 223.862C308.027 233.169 310.68 242.3 315.759 250.1C320.839 257.899 328.117 264.017 336.674 267.68C345.231 271.343 354.681 272.386 363.831 270.678C372.981 268.97 381.418 264.587 388.077 258.083C394.735 251.579 399.316 243.247 401.239 234.14C403.162 225.033 402.341 215.56 398.88 206.92C394.244 195.338 385.197 186.072 373.73 181.159C362.263 176.246 349.314 176.088 337.73 180.72L337.7 180.73Z" fill="#263238"/>
<path d="M361.717 228.336C363.887 224.756 362.744 220.095 359.164 217.925C355.584 215.755 350.923 216.898 348.753 220.478C346.583 224.058 347.726 228.719 351.306 230.889C354.886 233.059 359.548 231.916 361.717 228.336Z" fill="#263238"/>
<path d="M344.15 178.96C344.15 178.96 345.84 188.68 344.49 190.25C343.14 191.82 342.05 189.07 342.05 189.07C342.05 189.07 343.05 192.17 341.8 192.78C340.28 193.5 339.16 190.61 339.16 190.61C339.16 190.61 339.88 193.18 338.72 193.61C337.56 194.04 336.02 190.92 336.02 190.92C336.02 190.92 336.19 192.82 335.2 192.69C334.21 192.56 330.9 185.88 331.27 183.31C331.64 180.74 340.36 176.8 342.44 176.31C344.52 175.82 346 175.83 347.34 177.81L344.15 178.9V178.96Z" fill="#B97964"/>
<path opacity="0.2" d="M341.9 189.12L340.41 183.62C340.406 183.602 340.405 183.583 340.408 183.564C340.411 183.545 340.418 183.527 340.429 183.511C340.439 183.496 340.452 183.482 340.468 183.471C340.484 183.461 340.501 183.454 340.52 183.45C340.538 183.442 340.558 183.438 340.578 183.439C340.598 183.439 340.617 183.444 340.635 183.452C340.653 183.461 340.669 183.473 340.682 183.488C340.695 183.503 340.705 183.521 340.71 183.54L342.2 189.03C342.209 189.068 342.203 189.109 342.182 189.143C342.161 189.176 342.128 189.201 342.09 189.21C342.053 189.221 342.013 189.217 341.978 189.201C341.943 189.184 341.916 189.155 341.9 189.12Z" fill="black"/>
<path opacity="0.2" d="M339 190.52L337.15 185.36C337.144 185.341 337.142 185.321 337.143 185.301C337.145 185.281 337.151 185.262 337.16 185.244C337.169 185.226 337.182 185.211 337.198 185.198C337.213 185.185 337.231 185.176 337.25 185.17C337.287 185.156 337.328 185.157 337.365 185.171C337.402 185.186 337.433 185.214 337.45 185.25L339.3 190.42C339.306 190.438 339.308 190.458 339.306 190.477C339.305 190.496 339.299 190.515 339.289 190.532C339.28 190.549 339.267 190.564 339.252 190.575C339.236 190.587 339.219 190.596 339.2 190.6C339.182 190.61 339.162 190.616 339.141 190.617C339.121 190.618 339.1 190.615 339.081 190.607C339.062 190.599 339.045 190.588 339.031 190.573C339.017 190.558 339.006 190.54 339 190.52Z" fill="black"/>
<path opacity="0.2" d="M335.81 190.83L334.32 187.03C334.316 186.995 334.324 186.959 334.342 186.929C334.361 186.898 334.389 186.875 334.422 186.862C334.455 186.85 334.492 186.848 334.526 186.859C334.56 186.869 334.59 186.891 334.61 186.92L336.1 190.72C336.104 190.755 336.096 190.791 336.078 190.821C336.059 190.852 336.031 190.875 335.998 190.888C335.965 190.9 335.928 190.902 335.894 190.891C335.86 190.881 335.83 190.859 335.81 190.83Z" fill="black"/>
<path opacity="0.2" d="M437.01 213.26L435.98 213.39L432.27 195.21L433.99 215.62L437.25 216.15L437.01 213.26Z" fill="black"/>
<path d="M423 171.42C423 171.42 422.23 165.88 425.47 156.29C425.47 156.29 424.97 156.03 424.97 156.02C425.41 154.68 425.88 153.44 426.32 152.37L412.67 160.01C412.85 163.13 411.47 169.09 410.67 171.59C410.67 171.59 408.8 176.11 414.9 176.59C419.36 176.87 423 171.42 423 171.42Z" fill="#B97964"/>
<path opacity="0.2" d="M412.24 164.32L419.97 162.93C419.17 165.28 416.97 168.01 411.61 168C411.915 166.792 412.126 165.561 412.24 164.32Z" fill="black"/>
<path d="M426.69 145.87C425.43 154.26 424.89 159.02 420.24 162.93C413.24 168.81 403.4 164.15 402.13 155.52C400.98 147.76 403.24 135.35 411.8 132.8C413.697 132.235 415.707 132.161 417.64 132.584C419.574 133.008 421.369 133.915 422.857 135.221C424.344 136.526 425.476 138.188 426.147 140.051C426.817 141.913 427.004 143.916 426.69 145.87Z" fill="#B97964"/>
<path d="M428.66 135.82C427.91 131.07 416.27 129.99 412.8 132.08C412.29 132.39 418.88 136.47 418.47 136.28L421.62 137.69C422.13 137.62 423.07 138.29 423.44 139.89C423.44 139.89 421.92 152.79 425.26 156.89C428.33 155.71 428.95 150.6 430.15 147.63C431.94 143.18 434.19 136.67 428.66 135.82Z" fill="#263238"/>
<path opacity="0.1" d="M402.13 155.52C402.13 155.52 409.25 154.68 411.61 153.86C413.501 153.286 415.433 152.858 417.39 152.58C419.04 152.34 422.98 148.13 422.98 148.13L423.98 148.7L424.98 157.5C424.98 157.5 420.17 166.64 412.03 165.5C409.515 165.13 407.186 163.956 405.393 162.154C403.599 160.352 402.437 158.017 402.08 155.5" fill="black"/>
<path d="M429.4 153.2C428.99 154.169 428.393 155.047 427.643 155.785C426.893 156.523 426.005 157.106 425.03 157.5C422.4 158.5 421.7 155.69 422.18 153.05C422.6 150.68 423.56 147.83 426.32 147.93C429.08 148.03 430.39 150.78 429.4 153.2Z" fill="#B97964"/>
<path d="M414.41 147.27C414.33 148.13 413.81 148.79 413.25 148.73C412.69 148.67 412.25 147.93 412.36 147.07C412.47 146.21 412.96 145.55 413.52 145.61C414.08 145.67 414.48 146.38 414.41 147.27Z" fill="#263238"/>
<path d="M405.93 146.66C405.85 147.52 405.33 148.18 404.77 148.12C404.21 148.06 403.77 147.32 403.88 146.46C403.99 145.6 404.48 144.94 405.04 145C405.6 145.06 406 145.8 405.93 146.66Z" fill="#263238"/>
<path d="M408.72 146.42C408.72 146.42 405.61 150.42 404.58 152.14C405.69 153.33 407.8 153.01 407.8 153.01L408.72 146.42Z" fill="#A24E3F"/>
<path d="M416.88 143.36C416.809 143.381 416.734 143.383 416.662 143.365C416.59 143.348 416.524 143.311 416.47 143.26C416.106 142.905 415.665 142.638 415.181 142.482C414.697 142.326 414.183 142.284 413.68 142.36C413.574 142.384 413.463 142.367 413.37 142.311C413.276 142.255 413.208 142.165 413.18 142.06C413.156 141.955 413.174 141.845 413.23 141.754C413.286 141.662 413.376 141.596 413.48 141.57C414.117 141.462 414.771 141.506 415.388 141.699C416.005 141.892 416.568 142.228 417.03 142.68C417.104 142.756 417.145 142.859 417.145 142.965C417.145 143.071 417.104 143.174 417.03 143.25C416.988 143.297 416.937 143.334 416.88 143.36Z" fill="#263238"/>
<path d="M410.77 156.41H410.35C410.251 156.4 410.16 156.351 410.096 156.275C410.033 156.198 410.002 156.099 410.01 156C410.014 155.95 410.027 155.902 410.05 155.858C410.073 155.814 410.104 155.775 410.143 155.743C410.181 155.711 410.225 155.687 410.273 155.673C410.321 155.659 410.371 155.654 410.42 155.66C411.056 155.687 411.69 155.582 412.283 155.353C412.877 155.125 413.417 154.776 413.87 154.33C413.947 154.267 414.046 154.237 414.145 154.247C414.244 154.256 414.336 154.304 414.4 154.38C414.432 154.418 414.456 154.463 414.47 154.51C414.484 154.558 414.488 154.608 414.483 154.658C414.477 154.707 414.462 154.755 414.437 154.798C414.413 154.842 414.38 154.88 414.34 154.91C413.363 155.813 412.099 156.344 410.77 156.41Z" fill="#263238"/>
<path opacity="0.2" d="M423.61 153.13H423.56C423.495 153.118 423.438 153.08 423.4 153.026C423.363 152.972 423.348 152.905 423.36 152.84C423.511 152.079 423.855 151.369 424.36 150.78C424.788 150.263 425.381 149.91 426.04 149.78C426.391 149.72 426.752 149.765 427.077 149.909C427.403 150.053 427.678 150.29 427.87 150.59C427.886 150.619 427.896 150.651 427.899 150.683C427.903 150.716 427.9 150.749 427.891 150.781C427.881 150.812 427.866 150.842 427.845 150.867C427.825 150.893 427.799 150.914 427.77 150.93C427.742 150.947 427.71 150.958 427.677 150.963C427.644 150.967 427.61 150.964 427.578 150.955C427.546 150.946 427.516 150.93 427.491 150.908C427.465 150.887 427.445 150.86 427.43 150.83C427.29 150.619 427.091 150.454 426.859 150.355C426.626 150.255 426.369 150.226 426.12 150.27C425.576 150.392 425.087 150.691 424.73 151.12C424.273 151.641 423.96 152.271 423.82 152.95C423.808 152.998 423.781 153.041 423.744 153.073C423.706 153.105 423.659 153.125 423.61 153.13Z" fill="black"/>
<path d="M402.51 142.69C402.437 142.662 402.372 142.617 402.32 142.56C402.252 142.476 402.219 142.368 402.228 142.26C402.238 142.152 402.288 142.051 402.37 141.98C402.857 141.562 403.438 141.268 404.062 141.122C404.687 140.975 405.338 140.982 405.96 141.14C406.061 141.174 406.145 141.247 406.194 141.342C406.242 141.437 406.252 141.548 406.22 141.65C406.205 141.701 406.18 141.748 406.147 141.788C406.114 141.829 406.072 141.862 406.026 141.887C405.979 141.911 405.928 141.926 405.875 141.93C405.823 141.934 405.77 141.927 405.72 141.91C405.227 141.789 404.712 141.79 404.219 141.912C403.726 142.034 403.27 142.273 402.89 142.61C402.838 142.654 402.776 142.684 402.71 142.698C402.644 142.712 402.575 142.709 402.51 142.69Z" fill="#263238"/>
<path d="M430.71 132.27C430.22 130.33 427.8 129.74 425.91 129.99C426.16 127.69 423.25 126.14 421.35 126.06C420.382 125.928 419.399 126.167 418.6 126.73C418.75 126.73 418.09 125.54 417.66 125.04C416.875 124.134 415.835 123.483 414.677 123.173C413.518 122.863 412.293 122.907 411.16 123.3C410.023 123.763 409.039 124.536 408.321 125.532C407.603 126.528 407.18 127.705 407.1 128.93C406.815 128.612 406.47 128.354 406.085 128.171C405.7 127.988 405.282 127.883 404.856 127.862C404.43 127.842 404.004 127.906 403.603 128.052C403.202 128.197 402.834 128.421 402.52 128.71C401.915 129.362 401.569 130.212 401.545 131.101C401.521 131.989 401.821 132.857 402.39 133.54C402.008 133.54 401.631 133.618 401.28 133.768C400.929 133.918 400.612 134.137 400.348 134.413C400.084 134.688 399.879 135.014 399.744 135.371C399.61 135.728 399.549 136.109 399.565 136.49C399.581 136.871 399.674 137.245 399.839 137.59C400.003 137.934 400.235 138.241 400.522 138.494C400.808 138.746 401.142 138.938 401.505 139.057C401.867 139.177 402.25 139.222 402.63 139.19C402.63 140.9 402.63 143.05 402.63 144.77L405.35 138.64C406.55 138.31 406.82 137.78 407.14 136.52C407.89 138.19 409.26 138.16 411.02 138.21C411.916 138.216 412.796 137.974 413.563 137.512C414.331 137.05 414.956 136.385 415.37 135.59C415.723 136.463 416.305 137.225 417.055 137.795C417.805 138.365 418.694 138.723 419.63 138.83C420.572 138.854 421.488 138.524 422.199 137.906C422.909 137.288 423.363 136.426 423.47 135.49C423.95 136.338 424.723 136.981 425.643 137.3C426.564 137.618 427.569 137.59 428.47 137.22C429.346 136.767 430.044 136.033 430.45 135.134C430.857 134.236 430.948 133.227 430.71 132.27Z" fill="#263238"/>
<path d="M383.2 253.95C401.2 256.36 419.75 255.62 438.83 252.25L439.54 260.51C419.82 263.94 399.28 264.18 382.54 260.75L383.2 253.95Z" fill="#006A8E"/>
<path opacity="0.3" d="M383.2 253.95C401.2 256.36 419.75 255.62 438.83 252.25L439.54 260.51C419.82 263.94 399.28 264.18 382.54 260.75L383.2 253.95Z" fill="black"/>
<path d="M419.46 263.05C419.59 263.85 415.46 294.37 424.36 295.69C433.26 297.01 449.23 292.58 449.36 288.06C449.49 283.54 446.98 258.06 442.82 258.06C438.66 258.06 419.46 263.05 419.46 263.05Z" fill="#006A8E"/>
<path opacity="0.3" d="M419.46 263.05C419.59 263.85 415.46 294.37 424.36 295.69C433.26 297.01 449.23 292.58 449.36 288.06C449.49 283.54 446.98 258.06 442.82 258.06C438.66 258.06 419.46 263.05 419.46 263.05Z" fill="black"/>
<path d="M406 264.27C404.286 264.349 402.57 264.167 400.91 263.73C400.53 263.53 399.52 263.01 400.51 255.99C400.536 255.653 400.679 255.335 400.915 255.092C401.151 254.849 401.464 254.696 401.8 254.66C409.04 254.3 409.44 254.66 409.66 254.81C410.54 255.55 410.42 263.02 410.27 263.45C410.22 263.559 410.148 263.656 410.059 263.735C409.969 263.814 409.864 263.874 409.75 263.91C408.524 264.208 407.261 264.329 406 264.27ZM407 255.5C405.8 255.5 404.09 255.55 401.86 255.66C401.7 255.66 401.55 255.87 401.51 256.13C400.88 260.59 401.09 262.59 401.39 262.84C402.39 263.38 408.39 263.38 409.39 263C409.528 260.528 409.407 258.047 409.03 255.6C408.358 255.5 407.679 255.456 407 255.47V255.5Z" fill="#263238"/>
<path d="M411.77 260.08H411.64C409.591 259.545 407.439 259.545 405.39 260.08C405.261 260.111 405.126 260.09 405.012 260.023C404.898 259.956 404.815 259.847 404.78 259.72C404.75 259.59 404.771 259.454 404.841 259.34C404.91 259.226 405.021 259.143 405.15 259.11C407.363 258.53 409.687 258.53 411.9 259.11C411.965 259.126 412.025 259.155 412.078 259.196C412.131 259.236 412.176 259.287 412.208 259.345C412.241 259.403 412.262 259.467 412.269 259.533C412.276 259.599 412.27 259.666 412.25 259.73C412.218 259.832 412.154 259.921 412.068 259.984C411.981 260.047 411.877 260.081 411.77 260.08Z" fill="#263238"/>
<path opacity="0.3" d="M420.41 270.35C420.6 270.4 444.94 267.88 444.94 267.88C444.94 267.88 444 260.38 442.55 259.83C441.1 259.28 423 261.27 421.82 262.5C420.64 263.73 420.41 270.35 420.41 270.35Z" fill="black"/>
<path d="M429.79 243.38L428.66 243.26V243.57L428.51 244.99C428.492 245.045 428.492 245.105 428.51 245.16L428.79 245.76C428.847 245.885 428.871 246.023 428.86 246.16L427.35 260.16L427.98 260.23L428.55 260.29L430.05 246.29C430.069 246.137 430.136 245.994 430.24 245.88L430.66 245.37C430.701 245.321 430.728 245.262 430.74 245.2L430.89 243.79V243.48L429.79 243.38Z" fill="#E0E0E0"/>
<path d="M430.05 261.45L425.69 260.98C425.193 262.811 424.881 264.687 424.76 266.58C424.61 267.94 424.36 268.99 424.27 269.92L429.52 269.39C429.6 268.67 429.67 268.05 429.77 267.12C430.046 265.243 430.14 263.345 430.05 261.45Z" fill="#006A8E"/>
<path d="M430.16 261.47L425.58 260.97C425.4 260.973 425.227 260.905 425.096 260.782C424.965 260.659 424.888 260.489 424.88 260.31L424.93 259.85C424.979 259.678 425.093 259.531 425.247 259.439C425.402 259.348 425.585 259.32 425.76 259.36L430.33 259.85C430.51 259.847 430.683 259.915 430.814 260.038C430.945 260.161 431.022 260.33 431.03 260.51V260.97C431.008 261.061 430.968 261.147 430.912 261.223C430.855 261.298 430.784 261.361 430.703 261.408C430.621 261.454 430.531 261.484 430.438 261.495C430.345 261.506 430.25 261.497 430.16 261.47Z" fill="#006A8E"/>
<path opacity="0.3" d="M425.69 260.98L430.05 261.46L430.09 261.92L425.54 261.47L425.69 260.98Z" fill="black"/>
<path d="M434.6 255.33V255.13C434.595 255.08 434.595 255.03 434.6 254.98C434.661 254.781 434.764 254.597 434.9 254.44C434.945 254.392 434.995 254.348 435.05 254.31L435.21 254.21H435.27L435.42 254.15C435.506 254.112 435.597 254.085 435.69 254.07L434.41 246.68H434.2H434.03L433.62 246.76C433.592 246.764 433.567 246.777 433.547 246.797C433.527 246.817 433.514 246.842 433.51 246.87L432.73 254.66L433.36 258.3C433.398 258.52 433.52 258.717 433.7 258.85L434.56 259.47L434.7 260.24C434.677 260.942 434.485 261.628 434.14 262.24C433.146 264.351 432.722 266.685 432.91 269.01L434.69 268.86C434.52 266.821 434.9 264.773 435.79 262.93C436.29 262.013 436.519 260.972 436.45 259.93L436.34 259.3C436.337 259.283 436.338 259.265 436.342 259.249C436.346 259.232 436.353 259.216 436.363 259.202C436.374 259.188 436.387 259.176 436.401 259.167C436.416 259.158 436.433 259.152 436.45 259.15H436.58L436.2 256.94C435.914 256.99 435.619 256.955 435.353 256.839C435.086 256.724 434.859 256.533 434.7 256.29C434.598 256.121 434.527 255.934 434.49 255.74C434.485 255.657 434.485 255.573 434.49 255.49L434.6 255.33Z" fill="#E0E0E0"/>
<path d="M440 261.27C439.456 260.795 439.037 260.194 438.78 259.52L438.66 258.76L439.25 257.88C439.376 257.696 439.426 257.47 439.39 257.25L438.76 253.61L435.4 246.54C435.387 246.515 435.367 246.494 435.342 246.482C435.316 246.469 435.288 246.465 435.26 246.47L434.85 246.54H434.58H434.47L435.75 253.93C435.941 253.896 436.137 253.899 436.327 253.941C436.517 253.983 436.696 254.062 436.855 254.173C437.014 254.285 437.15 254.427 437.253 254.591C437.357 254.755 437.427 254.939 437.46 255.13C437.47 255.23 437.47 255.33 437.46 255.43C437.443 255.769 437.313 256.093 437.09 256.349C436.867 256.604 436.564 256.778 436.23 256.84L436.61 259.05H436.75C436.766 259.046 436.784 259.045 436.801 259.048C436.817 259.05 436.833 259.057 436.848 259.066C436.862 259.076 436.874 259.088 436.883 259.102C436.892 259.117 436.898 259.133 436.9 259.15L437.01 259.79C437.295 260.81 437.868 261.727 438.66 262.43C440.107 263.872 441.143 265.674 441.66 267.65L443.38 267.19C442.786 264.957 441.621 262.917 440 261.27Z" fill="#EBEBEB"/>
<path d="M440.31 261.1C439.794 260.647 439.393 260.078 439.14 259.44L436.88 259.83C437.171 260.885 437.761 261.834 438.58 262.56C440.012 264.157 441.041 266.074 441.58 268.15L444.09 267.89C443.491 265.317 442.181 262.965 440.31 261.1Z" fill="#006A8E"/>
<path d="M434.54 260.27C434.52 260.97 434.335 261.655 434 262.27C432.926 264.397 432.443 266.773 432.6 269.15L435.03 268.92C434.873 266.908 435.249 264.89 436.12 263.07C436.643 262.107 436.879 261.013 436.8 259.92L434.54 260.27Z" fill="#006A8E"/>
<path d="M436.61 208.37L437.84 223.58L396.3 237.77L399.3 246.58C399.3 246.58 447 239.27 452 236.41C457 233.55 451.87 205.82 451.87 205.82L436.61 208.37Z" fill="#B97964"/>
<path d="M401.3 230.62C401.3 230.62 390.63 233.19 389.63 235.27C388.63 237.35 391.92 237.27 391.92 237.27C391.92 237.27 388.3 237.62 388.24 239.18C388.17 241.04 391.62 240.91 391.62 240.91C391.62 240.91 388.68 241.31 388.72 242.7C388.76 244.09 392.66 244.26 392.66 244.26C392.66 244.26 390.66 244.94 391.22 245.89C391.78 246.84 400.07 247.26 402.53 245.75C404.99 244.24 405.16 233.59 404.71 231.26C404.26 228.93 405.22 227.67 402.36 224.1L401.3 230.66V230.62Z" fill="#B97964"/>
<path opacity="0.2" d="M391.92 237.41L398.19 236.5C398.232 236.49 398.268 236.466 398.292 236.43C398.316 236.395 398.326 236.352 398.32 236.31C398.317 236.267 398.298 236.226 398.267 236.196C398.235 236.166 398.193 236.15 398.15 236.15L391.88 237.06C391.858 237.064 391.836 237.072 391.817 237.084C391.797 237.096 391.781 237.112 391.768 237.13C391.755 237.149 391.745 237.17 391.741 237.192C391.736 237.215 391.736 237.238 391.74 237.26C391.741 237.282 391.747 237.303 391.757 237.323C391.767 237.343 391.78 237.36 391.797 237.374C391.814 237.388 391.834 237.399 391.855 237.405C391.876 237.411 391.898 237.413 391.92 237.41Z" fill="black"/>
<path opacity="0.2" d="M391.8 241.04L397.89 240.65C397.934 240.643 397.974 240.619 398.002 240.584C398.029 240.549 398.043 240.505 398.04 240.46C398.037 240.417 398.018 240.376 397.987 240.346C397.955 240.317 397.913 240.3 397.87 240.3L391.78 240.69C391.737 240.695 391.697 240.717 391.669 240.75C391.641 240.784 391.627 240.827 391.63 240.87C391.63 240.915 391.648 240.958 391.68 240.99C391.712 241.022 391.755 241.04 391.8 241.04Z" fill="black"/>
<path opacity="0.2" d="M392.88 244.39L397.41 244.23C397.449 244.221 397.484 244.198 397.509 244.166C397.534 244.135 397.548 244.095 397.548 244.055C397.548 244.015 397.534 243.975 397.509 243.944C397.484 243.912 397.449 243.889 397.41 243.88L392.87 244.04C392.831 244.049 392.796 244.072 392.771 244.104C392.746 244.135 392.732 244.175 392.732 244.215C392.732 244.255 392.746 244.295 392.771 244.326C392.796 244.358 392.831 244.381 392.87 244.39H392.88Z" fill="black"/>
<path d="M438.63 173C438.63 173 446.42 174.44 448.19 183.66C449.82 192.14 454.39 211.01 454.39 211.01L436 213.39L432.29 191.32L438.63 173Z" fill="#006A8E"/>
</svg>
