<svg width="277" height="200" viewBox="0 0 277 200" fill="none" xmlns="http://www.w3.org/2000/svg">
<path d="M132.078 0.835449C121.851 1.94874 112.021 5.81874 103.861 11.9153C101.37 13.7708 96.6541 18.33 94.4285 20.9807C86.2945 30.7352 81.6049 43.8031 81.6049 56.7384C81.6049 77.5463 93.1832 96.7107 111.597 106.439C127.415 114.762 146.412 115 162.388 107.075C165.541 105.511 170.893 102.304 170.893 101.959C170.893 101.88 169.913 102.304 168.721 102.86C167.502 103.417 165.25 104.292 163.713 104.822C142.279 111.952 118.38 103.762 105.848 84.9682C97.131 71.9003 94.8789 56.0492 99.6215 41.2319C105.609 22.5976 121.877 9.05257 141.298 6.50791C150.731 5.2886 161.541 6.98504 169.383 10.9081C170.204 11.3322 170.893 11.6237 170.893 11.5442C170.893 11.3587 167.21 8.92004 164.932 7.64771C159.447 4.54641 152.638 2.24031 146.094 1.20654C142.782 0.702919 135.204 0.49086 132.078 0.835449Z" fill="#fff"/>
<path d="M143.047 12.3395C138.225 13.1082 133.959 14.4865 129.561 16.7131C127.494 17.7469 123.732 20.0795 123.732 20.318C123.732 20.3711 124.421 20.106 125.269 19.7349C127.653 18.6216 131.946 17.2963 134.648 16.7926C138.357 16.1034 146.014 16.1565 149.591 16.9252C153.46 17.7469 156.056 18.6481 159.633 20.3976C163.819 22.4651 166.972 24.7182 170.363 28.1111C176.139 33.8895 179.769 40.6223 181.544 48.7864C182.392 52.7624 182.392 60.635 181.544 64.5845C179.186 75.5583 173.198 84.4646 164.137 90.4552C152.877 97.9301 138.649 99.3349 126.302 94.1661C124.898 93.583 123.732 93.1323 123.732 93.1854C123.732 93.2384 124.712 93.901 125.905 94.6697C130.144 97.3999 135.655 99.6265 141.086 100.793C143.391 101.296 144.557 101.376 149.83 101.376C155.182 101.376 156.268 101.323 158.706 100.793C179.981 96.1806 194.739 78.1295 194.739 56.7384C194.739 35.3739 179.981 17.2963 158.812 12.7106C155.42 11.9684 146.571 11.7563 143.047 12.3395Z" fill="#fff"/>
<path d="M135.522 31.6629C126.514 33.4123 119.519 39.933 116.658 49.2104C115.995 51.384 115.942 51.9406 115.942 56.0757C115.916 61.5096 116.34 63.4976 118.565 68.0038C124.553 80.2234 137.112 85.1802 149.777 80.2765C152.453 79.2427 156.189 76.751 157.858 74.8691C159.368 73.1991 160.719 70.84 160.401 70.5219C160.269 70.3894 158.494 69.3291 156.453 68.1628L152.744 66.0423L152.135 67.2086C150.731 69.9918 147.101 72.5365 143.471 73.3052C140 74.0208 137.43 73.7293 134.33 72.1919C126.276 68.2423 123.149 56.8974 127.627 47.726C129.455 43.9356 133.456 40.7282 137.218 40.0391C140.609 39.4029 144.849 40.0921 147.525 41.709C149.088 42.6367 151.313 44.9163 152.002 46.2417C152.214 46.6923 152.453 47.1164 152.506 47.1429C152.532 47.1959 154.095 46.1886 155.95 44.8898C157.805 43.6175 159.474 42.4777 159.606 42.3717C160.057 42.0801 158.865 40.0391 157.195 38.1836C154.599 35.3208 150.731 33.0147 146.783 31.9545C144.451 31.3448 138.039 31.1858 135.522 31.6629Z" fill="#fff"/>
<path d="M5.511 146.172C3.8948 146.597 2.33159 147.657 1.64272 148.77C0.503433 150.599 0.238482 152.455 0.0795112 159.585C-0.158945 171.009 0.397452 174.932 2.57005 176.814C4.05377 178.113 5.16657 178.458 8.37247 178.59C13.539 178.829 15.9236 177.61 16.9569 174.243C17.2483 173.289 17.4868 171.99 17.4868 171.354C17.4868 170.241 17.4603 170.188 16.6919 170.188C15.8441 170.188 15.8176 170.267 15.4997 172.626C15.2877 174.296 14.4398 175.489 12.9031 176.258C11.8698 176.761 11.2339 176.867 9.3263 176.867C5.24605 176.867 3.3649 175.834 2.54355 173.13C2.19912 171.911 2.11963 170.161 2.11963 162.474C2.11963 152.057 2.25211 151.023 3.62985 149.486C4.90162 148.081 6.51782 147.524 9.27331 147.551C13.486 147.577 15.2612 148.982 15.6056 152.561C15.7646 154.151 15.7646 154.151 16.6654 154.231L17.5663 154.31L17.4338 152.375C17.2218 148.956 15.6586 146.941 12.6382 146.146C10.9425 145.722 7.18019 145.722 5.511 146.172Z" fill="#fff"/>
<path d="M69.947 146.172C67.589 146.809 66.3172 147.922 65.2839 150.308C64.8335 151.394 64.7805 152.322 64.701 161.44C64.595 171.778 64.701 173.262 65.7343 175.25C66.8736 177.53 68.7812 178.431 72.7555 178.59C76.5708 178.776 78.3195 178.299 79.9092 176.735C81.128 175.516 81.5519 174.376 81.7903 171.831L81.9493 170.188H81.128C80.2271 170.188 80.2006 170.241 79.8827 172.626C79.6707 174.27 78.8229 175.489 77.3657 176.205C76.4118 176.708 75.7495 176.814 73.7093 176.814C70.7154 176.814 69.3641 176.47 68.1984 175.357C66.5822 173.819 66.4497 172.838 66.5557 161.652C66.6351 152.11 66.6616 151.739 67.218 150.705C68.4633 148.373 70.0795 147.551 73.5239 147.551C77.8691 147.551 79.6442 148.929 79.9887 152.561C80.1476 154.151 80.1476 154.151 81.0485 154.231L81.9493 154.31L81.8168 152.375C81.6049 148.956 80.0417 146.941 77.0212 146.146C75.352 145.722 71.5632 145.722 69.947 146.172Z" fill="#fff"/>
<path d="M137.377 145.96C137.086 146.013 136.238 146.199 135.469 146.358C132.316 146.994 130.806 149.141 130.356 153.647C130.038 157.067 130.038 167.776 130.356 170.956C130.965 176.576 132.926 178.378 138.781 178.617C145.246 178.882 147.843 177.026 148.637 171.593C149.114 168.279 148.849 152.455 148.293 150.705C147.26 147.524 144.928 146.119 140.45 145.934C139.046 145.881 137.668 145.881 137.377 145.96ZM144.054 148.479C144.955 148.956 145.511 149.486 145.988 150.334L146.65 151.5L146.73 161.573C146.809 172.282 146.73 173.368 145.591 174.853C144.345 176.496 141.325 177.212 137.668 176.788C135.204 176.47 133.774 175.622 132.952 173.978C132.343 172.706 132.343 172.679 132.343 162.236C132.343 151.924 132.343 151.739 132.926 150.573C134.039 148.346 135.84 147.63 140.08 147.763C142.332 147.816 142.994 147.948 144.054 148.479Z" fill="#fff"/>
<path d="M32.4034 146.385C32.4829 146.57 34.0991 150.758 36.0068 155.715L39.4776 164.674V171.54V178.405H40.5374H41.5972V171.593V164.78L45.1741 155.688C47.1347 150.679 48.7509 146.438 48.7509 146.305C48.7509 146.146 48.274 146.066 47.6646 146.119L46.5783 146.199L44.9356 150.44C44.0348 152.773 42.71 156.378 41.9947 158.445C41.2793 160.539 40.5904 162.13 40.5109 162.024C40.405 161.918 39.8221 160.407 39.2127 158.657C38.6298 156.908 37.358 153.356 36.3777 150.758L34.629 146.066H33.4368C32.6154 146.066 32.2975 146.172 32.4034 146.385Z" fill="#fff"/>
<path d="M100.098 146.252C99.9924 146.517 99.9924 152.349 100.098 167.192L100.151 178.405H107.305H114.459V177.477V176.549H108.232H102.006V161.308V146.066H101.105C100.602 146.066 100.151 146.146 100.098 146.252Z" fill="#fff"/>
<path d="M167.714 162.209V178.405H168.774H169.834V172.441V166.477H172.192H174.523L177.809 172.441L181.094 178.405H182.366C183.611 178.405 183.611 178.405 183.267 177.795C182.021 175.807 176.934 166.689 177.014 166.636C177.067 166.583 177.809 166.344 178.63 166.106C180.564 165.549 181.544 164.727 182.286 162.978C182.816 161.785 182.922 160.99 183.028 157.835C183.161 153.462 182.816 150.997 181.809 149.115C181.226 148.028 180.802 147.657 179.584 147.021C178.1 146.278 177.915 146.278 172.88 146.119L167.714 145.987V162.209ZM177.888 148.479C179.266 148.85 180.299 149.936 180.723 151.394C180.908 152.083 181.041 154.284 181.041 156.802C181.067 160.539 180.988 161.202 180.511 162.289C179.637 164.224 178.974 164.462 174.02 164.568L169.834 164.674V156.431V148.187H173.357C175.265 148.187 177.332 148.32 177.888 148.479Z" fill="#fff"/>
<path d="M200.833 162.236V178.405H201.76H202.687V162.236V146.066H201.76H200.833V162.236Z" fill="#fff"/>
<path d="M221.552 159.373C221.631 171.778 221.684 172.812 222.161 174.164C223.248 177.238 225.473 178.431 230.083 178.431C235.356 178.458 237.555 176.973 238.429 172.891C238.615 171.964 238.721 167.166 238.721 158.79V146.066H237.82H236.893L236.787 159.108C236.681 173.528 236.681 173.607 235.038 175.25C233.846 176.443 231.806 176.947 229.103 176.735C226.745 176.523 225.288 175.728 224.413 174.164L223.751 172.971L223.619 159.585L223.486 146.199L222.479 146.119L221.472 146.04L221.552 159.373Z" fill="#fff"/>
<path d="M257.797 162.209V178.405H258.91H259.996L259.837 164.939L259.705 151.5L260.42 153.488C260.818 154.575 262.381 158.975 263.891 163.243C265.878 168.783 266.752 170.983 267.017 170.93C267.256 170.877 268.713 167.139 270.806 161.202C272.687 155.874 274.251 151.5 274.304 151.474C274.33 151.447 274.304 157.491 274.251 164.913L274.171 178.405H275.257H276.344L276.291 162.289L276.211 146.199L275.125 146.119L274.039 146.04L270.806 155.529C269.031 160.751 267.415 165.363 267.229 165.814C266.911 166.556 266.726 166.079 263.441 156.404L259.996 146.199L258.883 146.119L257.797 146.04V162.209Z" fill="#fff"/>
<path d="M154.546 189.909C153.936 190.439 153.883 190.598 154.175 190.943C154.44 191.261 154.652 191.314 155.102 191.075C155.553 190.89 155.871 190.89 156.242 191.102C157.301 191.658 157.487 190.359 156.453 189.697C155.606 189.14 155.42 189.167 154.546 189.909Z" fill="#fff"/>
<path d="M40.458 189.962C40.1135 190.306 40.2725 191.075 40.7229 191.234C41.2793 191.446 41.6768 191.075 41.5443 190.439C41.4648 189.935 40.7759 189.644 40.458 189.962Z" fill="#fff"/>
<path d="M54.1294 189.988C53.626 190.174 53.7055 191.049 54.2354 191.234C54.7918 191.446 55.1892 191.075 55.0567 190.439C54.9773 189.935 54.6328 189.776 54.1294 189.988Z" fill="#fff"/>
<path d="M148.028 189.962C147.684 190.306 147.843 191.075 148.293 191.234C148.849 191.446 149.247 191.075 149.114 190.439C149.035 189.935 148.346 189.644 148.028 189.962Z" fill="#fff"/>
<path d="M178.842 190.068C178.524 190.253 178.524 190.412 178.736 190.784C179.16 191.473 179.769 191.367 179.769 190.624C179.769 189.909 179.425 189.697 178.842 190.068Z" fill="#fff"/>
<path d="M258.592 190.306C258.168 191.128 258.248 196.482 258.698 197.119C259.016 197.516 259.175 197.569 259.572 197.331C259.996 197.066 260.049 196.588 260.129 193.779C260.208 190.518 260.049 189.803 259.228 189.803C259.042 189.803 258.751 190.041 258.592 190.306Z" fill="#fff"/>
<path d="M19.7918 190.253C19.6859 190.333 19.6064 190.757 19.6064 191.128C19.6064 191.791 19.5269 191.844 18.5996 191.817C15.7911 191.764 14.4398 195.237 16.6124 196.96C17.1953 197.41 17.6193 197.49 19.1825 197.437L21.0636 197.357L21.1431 193.699L21.2226 190.068H20.5867C20.2423 190.068 19.8713 190.147 19.7918 190.253ZM19.3414 193.911C19.7389 194.415 19.5004 195.528 18.9175 195.74C18.2021 196.005 17.5133 195.661 17.3278 194.945C17.1158 194.15 17.6193 193.514 18.4141 193.514C18.732 193.514 19.156 193.699 19.3414 193.911Z" fill="#fff"/>
<path d="M34.3112 190.704C33.6488 191.367 33.6223 191.473 33.7018 194.362L33.7813 197.357H34.4436C35.053 197.357 35.106 197.251 35.1855 195.82C35.265 194.415 35.318 194.309 35.9274 194.309C36.2718 194.309 36.6427 194.123 36.7222 193.911C36.9342 193.381 36.3778 192.718 35.7419 192.718C34.947 192.718 35.1855 192.056 36.1658 191.499C37.0401 191.022 36.8547 190.227 35.8479 190.121C35.212 190.068 34.8146 190.2 34.3112 190.704Z" fill="#fff"/>
<path d="M71.1923 190.253C71.0863 190.333 71.0069 190.784 71.0069 191.208C71.0069 191.897 70.9274 191.976 70.3445 191.817C69.4966 191.605 68.0129 192.215 67.4565 193.01C67.2181 193.355 67.0326 194.15 67.0326 194.786C67.0326 195.714 67.1916 196.085 67.801 196.721C68.5428 197.437 68.7018 197.49 70.477 197.437C71.9607 197.41 72.4111 197.304 72.6231 196.933C72.888 196.429 72.9675 191.155 72.7025 190.492C72.5436 190.068 71.5103 189.909 71.1923 190.253ZM70.7419 193.911C71.1393 194.415 70.9009 195.528 70.318 195.74C69.6026 196.005 68.9137 195.661 68.7283 194.945C68.5163 194.15 69.0197 193.514 69.8146 193.514C70.1325 193.514 70.5564 193.699 70.7419 193.911Z" fill="#fff"/>
<path d="M202.422 190.996C202.422 191.923 202.396 191.95 201.654 191.791C198.819 191.181 197.044 194.945 199.27 196.801C200.011 197.437 200.276 197.49 201.972 197.437L203.88 197.357V193.779V190.2L203.164 190.121C202.475 190.041 202.422 190.094 202.422 190.996ZM201.999 194.097C202.343 194.6 202.369 194.76 202.052 195.237C201.363 196.27 200.038 195.926 200.038 194.733C200.038 193.514 201.31 193.09 201.999 194.097Z" fill="#fff"/>
<path d="M244.205 190.253C244.099 190.333 244.02 190.757 244.02 191.128C244.02 191.791 243.94 191.844 242.96 191.817C240.257 191.764 238.933 195.104 240.999 196.907C241.609 197.437 241.927 197.49 243.569 197.437L245.477 197.357L245.556 193.699L245.636 190.068H245C244.656 190.068 244.285 190.147 244.205 190.253ZM243.755 193.911C244.152 194.415 243.914 195.528 243.331 195.74C242.615 196.005 241.927 195.661 241.741 194.945C241.529 194.15 242.033 193.514 242.827 193.514C243.145 193.514 243.569 193.699 243.755 193.911Z" fill="#fff"/>
<path d="M1.29826 191.844C0.158971 191.976 0 192.294 0 194.866C0 196.88 0.450416 197.808 1.24527 197.331C1.6162 197.119 1.74868 196.642 1.80167 195.396C1.88115 193.832 1.93414 193.726 2.64951 193.461C3.2324 193.275 3.44436 193.037 3.44436 192.586C3.44436 192.056 2.91446 191.579 2.43755 191.711C2.33157 191.738 1.82816 191.791 1.29826 191.844Z" fill="#fff"/>
<path d="M8.26641 192.056C6.49124 192.825 6.1733 195.502 7.71002 196.801C9.06127 197.94 12.0552 197.569 11.5783 196.323C11.4193 195.952 11.2074 195.899 10.386 196.032C9.69715 196.138 9.24673 196.058 8.8758 195.793C8.37239 195.422 8.45188 195.396 9.88261 195.369C11.5783 195.369 12.4526 195.051 12.4526 194.415C12.4526 193.593 11.6048 192.4 10.7305 192.029C9.61766 191.579 9.37921 191.579 8.26641 192.056ZM10.3595 193.514L10.9954 194.017L9.75014 194.044C8.45188 194.044 8.13394 193.752 8.95529 193.275C9.59117 192.904 9.67065 192.904 10.3595 193.514Z" fill="#fff"/>
<path d="M26.2566 192.109C24.4814 193.01 24.19 195.502 25.7267 196.801C27.0514 197.914 29.6744 197.649 29.6744 196.403C29.6744 195.899 29.5685 195.846 28.5352 196.005C27.7403 196.138 27.2634 196.058 26.8925 195.793C26.4155 195.422 26.495 195.396 27.9788 195.369C30.0719 195.369 30.6548 194.972 30.3103 193.779C29.8334 192.109 27.8463 191.287 26.2566 192.109ZM28.3762 193.514L29.0121 194.017L27.7668 194.044C26.4685 194.044 26.1506 193.752 26.9719 193.275C27.6078 192.904 27.6873 192.904 28.3762 193.514Z" fill="#fff"/>
<path d="M40.2726 192.162C39.8487 192.957 39.9281 196.509 40.3786 197.119C40.6965 197.516 40.8555 197.569 41.2529 197.331C41.6503 197.092 41.7563 196.615 41.8093 194.707C41.8888 192.4 41.6768 191.658 40.9085 191.658C40.723 191.658 40.4315 191.897 40.2726 192.162Z" fill="#fff"/>
<path d="M46.3664 191.87L45.439 192.056V194.707V197.357H46.1014C46.7108 197.357 46.7638 197.251 46.8433 196.032C46.9492 193.885 47.1082 193.461 47.7706 193.567C48.274 193.646 48.38 193.832 48.486 195.343C48.6449 197.251 49.1483 197.887 49.9432 197.225C50.3141 196.933 50.3671 196.509 50.2876 195.051C50.2081 193.567 50.0757 193.116 49.5458 192.586C48.8039 191.87 47.7441 191.632 46.3664 191.87Z" fill="#fff"/>
<path d="M53.9704 191.844C53.8645 191.923 53.785 193.196 53.785 194.627C53.785 196.721 53.8645 197.278 54.1824 197.384C54.3944 197.49 54.7653 197.41 54.9773 197.225C55.4807 196.801 55.5336 192.453 55.0567 191.976C54.7123 191.632 54.2354 191.552 53.9704 191.844Z" fill="#fff"/>
<path d="M59.8789 191.897L58.9516 192.056L58.8721 194.468C58.8191 196.376 58.8721 196.96 59.2165 197.225C59.9584 197.861 60.4088 197.357 60.4088 195.82C60.4088 194.256 60.8857 193.328 61.5746 193.593C61.8925 193.726 61.9985 194.097 61.9985 195.184C61.9985 196.88 62.5019 197.781 63.2438 197.331C63.5882 197.119 63.7472 196.642 63.8002 195.502C63.9061 193.514 63.4822 192.48 62.3694 192.029C61.4421 191.632 61.3361 191.632 59.8789 191.897Z" fill="#fff"/>
<path d="M78.028 191.923C76.5708 192.506 75.8025 194.282 76.4118 195.74C76.9152 196.933 77.7896 197.49 79.1143 197.49C82.1878 197.49 82.9826 193.222 80.1212 192.029C79.1408 191.605 78.7964 191.605 78.028 191.923ZM80.0682 194.176C80.3331 194.76 80.3066 194.945 79.8032 195.422C79.3263 195.926 79.1408 195.952 78.5579 195.687C77.3922 195.157 77.8161 193.514 79.1408 193.514C79.5383 193.514 79.8562 193.752 80.0682 194.176Z" fill="#fff"/>
<path d="M92.5474 192.056C91.567 192.48 90.8782 193.646 90.8782 194.866C90.8782 195.449 91.1431 195.952 91.779 196.589C92.6533 197.463 92.7593 197.49 94.508 197.437C95.4883 197.41 96.3892 197.278 96.4951 197.119C96.8661 196.589 96.7336 192.188 96.3892 192.056C95.2764 191.738 93.3157 191.711 92.5474 192.056ZM94.5345 193.832C95.2499 194.548 94.72 195.899 93.7661 195.899C93.1568 195.899 92.4679 194.892 92.6798 194.335C92.9713 193.514 93.9516 193.249 94.5345 193.832Z" fill="#fff"/>
<path d="M107.385 192.056C106.404 192.48 105.715 193.646 105.715 194.866C105.715 195.449 105.98 195.952 106.616 196.589C107.358 197.331 107.703 197.49 108.683 197.49C110.061 197.49 110.908 196.986 110.67 196.323C110.511 195.952 110.273 195.899 109.345 196.032C108.471 196.164 108.126 196.111 107.861 195.793C107.544 195.422 107.676 195.369 109.001 195.369C110.67 195.369 111.544 195.051 111.544 194.415C111.544 193.593 110.696 192.4 109.822 192.029C108.709 191.579 108.471 191.579 107.385 192.056ZM109.186 193.249C110.061 193.726 109.743 194.044 108.444 194.044L107.173 194.017L107.809 193.514C108.524 192.904 108.497 192.904 109.186 193.249Z" fill="#fff"/>
<path d="M115.042 191.976C114.565 192.453 114.644 192.957 115.386 193.832L116.049 194.627L115.386 195.422C114.591 196.376 114.591 197.331 115.413 197.437C115.784 197.49 116.181 197.251 116.552 196.801L117.108 196.085L117.903 196.827C119.281 198.152 120.261 197.066 119.095 195.528L118.38 194.574L119.069 193.752C119.89 192.772 119.943 192.294 119.228 191.923C118.751 191.685 118.566 191.764 117.93 192.427L117.188 193.222L116.446 192.453C115.598 191.552 115.492 191.526 115.042 191.976Z" fill="#fff"/>
<path d="M124.129 191.897L123.07 192.056L122.99 195.396C122.937 198.205 122.99 198.789 123.361 199.08C123.944 199.584 124.633 199.107 124.739 198.126C124.818 197.384 124.871 197.357 125.852 197.437C126.779 197.543 127.044 197.41 127.839 196.615C128.581 195.873 128.766 195.475 128.766 194.654C128.766 193.461 128.236 192.613 127.176 192.056C126.382 191.632 125.931 191.632 124.129 191.897ZM126.911 194.017C127.309 194.786 127.256 195.051 126.541 195.502C125.719 196.058 124.792 195.634 124.792 194.76C124.792 193.54 126.355 193.01 126.911 194.017Z" fill="#fff"/>
<path d="M133.615 192.029C132.634 192.48 131.946 193.646 131.946 194.866C131.946 195.449 132.211 195.952 132.846 196.589C133.588 197.331 133.933 197.49 134.913 197.49C136.291 197.49 137.139 196.986 136.9 196.297C136.741 195.926 136.503 195.873 135.549 196.005C134.701 196.138 134.33 196.085 134.065 195.767C133.774 195.422 133.933 195.369 135.31 195.369C136.211 195.369 137.086 195.21 137.351 195.025C137.774 194.707 137.801 194.547 137.536 193.699C137.006 192.109 135.204 191.34 133.615 192.029ZM135.416 193.249C136.291 193.726 135.973 194.044 134.675 194.044L133.403 194.017L134.039 193.514C134.754 192.904 134.728 192.904 135.416 193.249Z" fill="#fff"/>
<path d="M142.279 191.844C141.775 191.923 141.272 192.109 141.166 192.268C141.06 192.453 140.954 193.567 140.954 194.733C140.954 196.376 141.06 196.986 141.378 197.251C142.173 197.887 142.676 197.225 142.756 195.396C142.835 193.832 142.888 193.726 143.603 193.461C144.186 193.275 144.398 193.037 144.398 192.586C144.398 192.056 143.868 191.579 143.391 191.711C143.285 191.711 142.782 191.791 142.279 191.844Z" fill="#fff"/>
<path d="M147.843 192.162C147.419 192.957 147.498 196.509 147.949 197.119C148.267 197.516 148.425 197.569 148.823 197.331C149.22 197.092 149.326 196.615 149.379 194.707C149.459 192.4 149.247 191.658 148.478 191.658C148.293 191.658 148.002 191.897 147.843 192.162Z" fill="#fff"/>
<path d="M154.599 191.897C152.638 192.719 152.214 195.661 153.83 196.933C155.076 197.914 157.646 197.543 157.646 196.403C157.646 195.899 157.54 195.846 156.506 196.005C155.712 196.138 155.235 196.058 154.864 195.793C154.36 195.422 154.44 195.396 155.791 195.369C157.964 195.369 158.441 195.157 158.441 194.335C158.441 193.381 157.752 192.48 156.692 192.029C155.712 191.605 155.367 191.605 154.599 191.897ZM156.348 193.514L156.983 194.017L155.738 194.044C154.44 194.044 154.122 193.752 154.943 193.275C155.579 192.904 155.659 192.904 156.348 193.514Z" fill="#fff"/>
<path d="M162.945 191.87L162.017 192.056V194.707V197.357H162.68C163.289 197.357 163.342 197.251 163.422 196.032C163.528 193.885 163.687 193.461 164.349 193.567C164.852 193.646 164.958 193.832 165.064 195.343C165.223 197.251 165.727 197.887 166.522 197.225C166.893 196.933 166.946 196.509 166.866 195.051C166.787 193.567 166.654 193.116 166.124 192.586C165.382 191.87 164.323 191.632 162.945 191.87Z" fill="#fff"/>
<path d="M171.768 192.056C169.913 192.851 169.595 195.475 171.185 196.801C172.139 197.596 173.622 197.728 174.55 197.066C175.715 196.244 175 195.157 173.622 195.687C172.616 196.058 171.953 195.661 171.953 194.68C171.953 193.885 172.377 193.646 173.808 193.646C174.841 193.646 175 193.567 175.08 193.037C175.159 192.559 174.974 192.347 174.232 192.056C173.092 191.579 172.854 191.579 171.768 192.056Z" fill="#fff"/>
<path d="M178.921 191.844C178.497 192.003 178.444 197.119 178.842 197.357C179.001 197.437 179.345 197.437 179.637 197.357C180.114 197.198 180.167 196.96 180.167 194.733C180.167 192.003 179.928 191.42 178.921 191.844Z" fill="#fff"/>
<path d="M185.307 192.029C184.167 192.533 183.611 193.434 183.611 194.786C183.611 195.74 183.743 196.085 184.432 196.721C185.201 197.437 185.413 197.49 187.029 197.463C187.983 197.437 188.936 197.278 189.122 197.145C189.466 196.88 189.572 192.798 189.228 192.294C188.91 191.817 186.234 191.632 185.307 192.029ZM187.267 193.832C187.771 194.335 187.638 195.316 187.055 195.634C185.916 196.244 184.856 195.184 185.466 194.044C185.784 193.461 186.764 193.328 187.267 193.832Z" fill="#fff"/>
<path d="M209.179 192.029C208.119 192.48 207.721 193.01 207.536 194.15C207.351 195.396 207.88 196.615 208.808 197.092C210.344 197.914 212.809 197.357 212.411 196.297C212.252 195.926 212.014 195.873 211.086 196.005C210.291 196.138 209.815 196.058 209.444 195.793C208.967 195.422 209.046 195.396 210.583 195.369C212.279 195.369 213.285 195.051 213.285 194.548C213.285 193.779 212.358 192.453 211.563 192.082C210.53 191.579 210.212 191.579 209.179 192.029ZM210.927 193.249C211.802 193.726 211.484 194.044 210.186 194.044L208.914 194.017L209.55 193.514C210.265 192.904 210.238 192.904 210.927 193.249Z" fill="#fff"/>
<path d="M223.486 191.844C222.903 191.897 222.347 192.109 222.241 192.268C222.135 192.453 222.029 193.911 222.029 195.528C222.029 198.762 222.347 199.743 223.274 199.186C223.539 199.027 223.777 198.577 223.83 198.179C223.91 197.569 224.042 197.49 224.837 197.49C226.692 197.49 227.831 196.403 227.858 194.654C227.858 193.779 227.672 193.328 227.142 192.719C226.348 191.844 225.42 191.632 223.486 191.844ZM226.109 194.097C226.427 194.627 226.162 195.263 225.394 195.74C224.89 196.058 223.883 195.29 223.883 194.574C223.883 193.514 225.526 193.169 226.109 194.097Z" fill="#fff"/>
<path d="M232.68 192.056C230.905 192.825 230.587 195.502 232.123 196.801C233.448 197.914 236.071 197.649 236.071 196.403C236.071 195.899 235.965 195.846 234.932 196.005C234.137 196.138 233.66 196.058 233.289 195.793C232.786 195.422 232.865 195.396 234.296 195.369C235.992 195.369 236.866 195.051 236.866 194.415C236.866 193.593 236.018 192.4 235.144 192.029C234.031 191.579 233.793 191.579 232.68 192.056ZM234.773 193.514L235.409 194.017L234.164 194.044C232.865 194.044 232.547 193.752 233.369 193.275C234.005 192.904 234.084 192.904 234.773 193.514Z" fill="#fff"/>
<path d="M250.723 192.082C249.875 192.506 249.054 193.832 249.054 194.76C249.054 195.422 249.981 196.854 250.617 197.198C250.908 197.357 251.942 197.463 252.949 197.41L254.75 197.331V194.707V192.056L253.955 192.003C253.531 192.003 252.816 191.897 252.366 191.817C251.862 191.711 251.253 191.817 250.723 192.082ZM253.081 194.176C253.346 194.76 253.319 194.945 252.816 195.422C252.339 195.926 252.154 195.952 251.571 195.687C251.147 195.475 250.908 195.157 250.908 194.76C250.908 193.434 252.551 193.01 253.081 194.176Z" fill="#fff"/>
<path d="M265.481 191.844C264.712 192.135 263.653 193.328 263.494 194.044C263.282 194.998 263.918 196.536 264.765 197.092C265.242 197.384 265.905 197.49 267.229 197.437L269.058 197.357L269.137 194.627L269.217 191.897L268.342 191.95C267.865 191.976 267.123 191.923 266.673 191.817C266.249 191.738 265.693 191.738 265.481 191.844ZM267.388 194.176C267.653 194.76 267.627 194.945 267.123 195.422C266.647 195.926 266.461 195.952 265.878 195.687C265.454 195.475 265.216 195.157 265.216 194.76C265.216 193.434 266.858 193.01 267.388 194.176Z" fill="#fff"/>
<path d="M273.906 191.844L272.899 191.95V194.601C272.899 196.721 272.979 197.278 273.297 197.384C274.065 197.702 274.489 196.96 274.489 195.316C274.489 193.805 274.516 193.752 275.284 193.487C275.867 193.275 276.079 193.037 276.079 192.586C276.079 192.056 275.549 191.579 275.072 191.711C274.966 191.738 274.436 191.791 273.906 191.844Z" fill="#fff"/>
</svg>
