<svg width="45" height="45" viewBox="0 0 45 45" fill="none" xmlns="http://www.w3.org/2000/svg">
<path d="M20.0761 0.0677376C16.0082 0.514294 12.0984 2.0666 8.85246 4.51201C7.86182 5.25627 5.98595 7.08501 5.1007 8.14824C1.86534 12.0609 0 17.3026 0 22.4911C0 30.8374 4.60538 38.5245 11.9297 42.4266C18.2213 45.7651 25.7775 45.8608 32.1323 42.6817C33.3864 42.0544 35.5152 40.7679 35.5152 40.6297C35.5152 40.5978 35.1253 40.7679 34.651 40.9912C34.1663 41.2145 33.2705 41.5653 32.6592 41.778C24.1335 44.6381 14.6276 41.3527 9.64285 33.8144C6.17564 28.5728 5.27986 22.2147 7.16627 16.2713C9.54801 8.7968 16.0187 3.36373 23.7436 2.34304C27.4953 1.85395 31.7951 2.53442 34.9145 4.10799C35.2412 4.2781 35.5152 4.39506 35.5152 4.36316C35.5152 4.28873 34.0503 3.31057 33.144 2.80022C30.9625 1.55625 28.2541 0.631248 25.651 0.216591C24.3337 0.0145798 21.3197 -0.0704803 20.0761 0.0677376Z" fill="#006A8E"/>
<path d="M24.4391 4.68208C22.5211 4.99041 20.8244 5.54329 19.0749 6.4364C18.2529 6.85106 16.7564 7.78669 16.7564 7.88238C16.7564 7.90364 17.0304 7.79733 17.3677 7.64847C18.3162 7.20192 20.0234 6.67031 21.0984 6.4683C22.5738 6.19186 25.6194 6.21312 27.0422 6.52145C28.5808 6.85106 29.6136 7.21255 31.0363 7.91428C32.7014 8.74359 33.9555 9.64733 35.3044 11.0083C37.6019 13.3261 39.0457 16.0267 39.7518 19.3014C40.089 20.8962 40.089 24.054 39.7518 25.6382C38.8138 30.04 36.4321 33.6124 32.8279 36.0153C28.3489 39.0136 22.6897 39.5771 17.7787 37.5038C17.2201 37.2699 16.7564 37.0891 16.7564 37.1104C16.7564 37.1317 17.1464 37.3975 17.6206 37.7058C19.3068 38.8009 21.4988 39.694 23.6592 40.1618C24.5761 40.3639 25.0398 40.3958 27.137 40.3958C29.2658 40.3958 29.6979 40.3745 30.6674 40.1618C39.13 38.3118 45 31.0713 45 22.4911C45 13.9215 39.13 6.67031 30.7096 4.83093C29.3607 4.53323 25.8407 4.44817 24.4391 4.68208Z" fill="#006A8E"/>
<path d="M21.4461 12.4331C17.863 13.1348 15.0808 15.7503 13.9426 19.4716C13.6792 20.3435 13.6581 20.5667 13.6581 22.2254C13.6475 24.405 13.8162 25.2024 14.7014 27.0099C17.0831 31.9113 22.0784 33.8996 27.1159 31.9326C28.1803 31.5179 29.6663 30.5185 30.3302 29.7636C30.9309 29.0938 31.4684 28.1475 31.3419 28.0199C31.2892 27.9668 30.5831 27.5415 29.7717 27.0737L28.2962 26.2231L28.0539 26.6909C27.4953 27.8073 26.0515 28.828 24.6077 29.1363C23.2272 29.4234 22.2049 29.3064 20.9719 28.6898C17.7681 27.1056 16.5246 22.555 18.3056 18.8762C19.0328 17.3558 20.6241 16.0693 22.1206 15.7929C23.4695 15.5377 25.1557 15.8141 26.2201 16.4627C26.8419 16.8348 27.7272 17.7492 28.0012 18.2808C28.0855 18.4616 28.1803 18.6317 28.2014 18.6423C28.2119 18.6636 28.8337 18.2595 29.5714 17.7386C30.3091 17.2282 30.9731 16.771 31.0258 16.7285C31.2049 16.6115 30.7307 15.7929 30.0667 15.0486C29.0339 13.9003 27.4953 12.9753 25.9251 12.55C24.9977 12.3055 22.4473 12.2417 21.4461 12.4331Z" fill="#006A8E"/>
</svg>
